<mxfile host="Electron" agent="Mozilla/5.0 (Windows NT 10.0; Win64; x64) AppleWebKit/537.36 (KHTML, like Gecko) draw.io/21.6.1 Chrome/112.0.5615.204 Electron/24.6.1 Safari/537.36" modified="2025-09-10T06:31:41.607Z" etag="kMQf-Z12BKuR3TyDnCrL" version="21.6.1" type="device">
  <diagram name="Page-1" id="u8aUBlL13KQeWDRxbzS9">
    <mxGraphModel dx="1519" dy="1782" grid="1" gridSize="5" guides="0" tooltips="1" connect="0" arrows="1" fold="1" page="1" pageScale="1" pageWidth="700" pageHeight="1300" math="0" shadow="0">
      <root>
        <mxCell id="0" />
        <mxCell id="1" parent="0" />
        <mxCell id="FpiPbvx918O2UCjRa50Q-1" value="" style="rounded=1;whiteSpace=wrap;html=1;strokeColor=default;fillColor=none;dashed=1;dashPattern=8 8;strokeWidth=2;" parent="1" vertex="1">
          <mxGeometry x="-665" y="-495" width="90" height="395" as="geometry" />
        </mxCell>
        <mxCell id="xDn3wvnqnu_-Lds5UZNF-4" value="" style="endArrow=none;html=1;rounded=1;strokeColor=#FF0000;strokeWidth=6;startSize=0;endSize=0;" parent="1" edge="1">
          <mxGeometry width="50" height="50" relative="1" as="geometry">
            <mxPoint x="-119" y="-300" as="sourcePoint" />
            <mxPoint x="-169" y="-345" as="targetPoint" />
            <Array as="points">
              <mxPoint x="-119" y="-345" />
            </Array>
          </mxGeometry>
        </mxCell>
        <mxCell id="Ivb3BQ265d0Xipn8B_8D-4" value="" style="endArrow=none;html=1;rounded=1;curved=0;strokeWidth=6;strokeColor=#0000cc;entryX=0.935;entryY=0.588;entryDx=0;entryDy=0;entryPerimeter=0;" parent="1" target="Ivb3BQ265d0Xipn8B_8D-19" edge="1">
          <mxGeometry width="50" height="50" relative="1" as="geometry">
            <mxPoint x="-264" y="-235" as="sourcePoint" />
            <mxPoint x="-94" y="-360" as="targetPoint" />
            <Array as="points">
              <mxPoint x="-264" y="-335" />
              <mxPoint x="-85" y="-335" />
            </Array>
          </mxGeometry>
        </mxCell>
        <mxCell id="xDn3wvnqnu_-Lds5UZNF-7" value="" style="endArrow=none;html=1;rounded=1;labelBackgroundColor=default;strokeColor=#66B2FF;strokeWidth=6;fontFamily=Helvetica;fontSize=11;fontColor=default;startSize=0;endSize=0;shape=connector;endFill=0;" parent="1" edge="1">
          <mxGeometry width="50" height="50" relative="1" as="geometry">
            <mxPoint x="-189" y="-475" as="sourcePoint" />
            <mxPoint x="-124" y="-445" as="targetPoint" />
            <Array as="points">
              <mxPoint x="-154" y="-475" />
            </Array>
          </mxGeometry>
        </mxCell>
        <mxCell id="xDn3wvnqnu_-Lds5UZNF-3" value="" style="endArrow=none;html=1;rounded=1;strokeColor=#66B2FF;strokeWidth=6;endFill=0;entryX=0;entryY=0;entryDx=0;entryDy=0;entryPerimeter=0;" parent="1" target="Ria-s_h3xSO_SLDeOQL_-8" edge="1">
          <mxGeometry width="50" height="50" relative="1" as="geometry">
            <mxPoint x="-119" y="-380" as="sourcePoint" />
            <mxPoint x="-94" y="-425" as="targetPoint" />
            <Array as="points">
              <mxPoint x="-119" y="-440" />
            </Array>
          </mxGeometry>
        </mxCell>
        <mxCell id="LhJ2MKZEmk0QEzE14GEJ-14" value="" style="endArrow=none;html=1;rounded=1;labelBackgroundColor=default;strokeColor=#808080;strokeWidth=6;fontFamily=Helvetica;fontSize=11;fontColor=default;startSize=0;endSize=0;shape=connector;" parent="1" edge="1">
          <mxGeometry width="50" height="50" relative="1" as="geometry">
            <mxPoint x="-229" y="-205" as="sourcePoint" />
            <mxPoint x="-144" y="-205" as="targetPoint" />
            <Array as="points" />
          </mxGeometry>
        </mxCell>
        <mxCell id="LhJ2MKZEmk0QEzE14GEJ-16" value="" style="endArrow=none;html=1;rounded=1;labelBackgroundColor=default;strokeColor=#808080;strokeWidth=6;fontFamily=Helvetica;fontSize=11;fontColor=default;startSize=0;endSize=0;shape=connector;" parent="1" source="Ivb3BQ265d0Xipn8B_8D-9" edge="1">
          <mxGeometry width="50" height="50" relative="1" as="geometry">
            <mxPoint x="-264" y="-205" as="sourcePoint" />
            <mxPoint x="-209" y="-205" as="targetPoint" />
            <Array as="points" />
          </mxGeometry>
        </mxCell>
        <mxCell id="Rw5dygfvGm5HHu7KgE6S-61" value="" style="endArrow=none;html=1;rounded=1;endFill=0;strokeColor=#FF99FF;strokeWidth=6;" parent="1" edge="1">
          <mxGeometry width="50" height="50" relative="1" as="geometry">
            <mxPoint x="-474" y="-955" as="sourcePoint" />
            <mxPoint x="-474" y="-1235" as="targetPoint" />
            <Array as="points">
              <mxPoint x="-474" y="-975" />
              <mxPoint x="-494" y="-995" />
              <mxPoint x="-494" y="-1035" />
              <mxPoint x="-414" y="-1035" />
              <mxPoint x="-414" y="-1075" />
              <mxPoint x="-514" y="-1075" />
              <mxPoint x="-514" y="-1160" />
              <mxPoint x="-474" y="-1190" />
            </Array>
          </mxGeometry>
        </mxCell>
        <mxCell id="Rw5dygfvGm5HHu7KgE6S-41" value="" style="endArrow=none;html=1;rounded=1;endFill=0;strokeWidth=6;strokeColor=#9933FF;" parent="1" edge="1">
          <mxGeometry width="50" height="50" relative="1" as="geometry">
            <mxPoint x="-174" y="-715" as="sourcePoint" />
            <mxPoint x="-474" y="-955" as="targetPoint" />
            <Array as="points">
              <mxPoint x="-174" y="-770" />
              <mxPoint x="-199" y="-795" />
              <mxPoint x="-474" y="-794" />
              <mxPoint x="-474" y="-835" />
              <mxPoint x="-434" y="-835" />
              <mxPoint x="-434" y="-855" />
              <mxPoint x="-434" y="-875" />
              <mxPoint x="-464" y="-905" />
              <mxPoint x="-474" y="-915" />
              <mxPoint x="-474" y="-930" />
            </Array>
          </mxGeometry>
        </mxCell>
        <mxCell id="Rw5dygfvGm5HHu7KgE6S-21" value="" style="endArrow=none;html=1;rounded=1;endFill=0;strokeWidth=6;strokeColor=#00CC00;" parent="1" edge="1">
          <mxGeometry width="50" height="50" relative="1" as="geometry">
            <mxPoint x="-214" y="-510" as="sourcePoint" />
            <mxPoint x="-174" y="-715" as="targetPoint" />
            <Array as="points">
              <mxPoint x="-214" y="-555" />
              <mxPoint x="-474" y="-555" />
              <mxPoint x="-474" y="-635" />
              <mxPoint x="-199" y="-635" />
              <mxPoint x="-174" y="-660" />
            </Array>
          </mxGeometry>
        </mxCell>
        <mxCell id="Ria-s_h3xSO_SLDeOQL_-22" value="" style="endArrow=none;html=1;rounded=1;labelBackgroundColor=default;strokeColor=#FF0000;strokeWidth=6;fontFamily=Helvetica;fontSize=11;fontColor=default;startSize=0;endSize=0;shape=connector;exitX=0;exitY=0;exitDx=0;exitDy=0;" parent="1" edge="1">
          <mxGeometry width="50" height="50" relative="1" as="geometry">
            <mxPoint x="-247.53553390593288" y="-358.5355339059329" as="sourcePoint" />
            <mxPoint x="-224" y="-345" as="targetPoint" />
            <Array as="points">
              <mxPoint x="-234" y="-345" />
            </Array>
          </mxGeometry>
        </mxCell>
        <mxCell id="Ria-s_h3xSO_SLDeOQL_-14" value="" style="endArrow=none;html=1;rounded=1;strokeColor=#66B2FF;strokeWidth=6;endFill=0;" parent="1" edge="1">
          <mxGeometry width="50" height="50" relative="1" as="geometry">
            <mxPoint x="-174" y="-475" as="sourcePoint" />
            <mxPoint x="-214" y="-510" as="targetPoint" />
            <Array as="points">
              <mxPoint x="-214" y="-475" />
            </Array>
          </mxGeometry>
        </mxCell>
        <mxCell id="Ria-s_h3xSO_SLDeOQL_-9" value="" style="endArrow=none;html=1;rounded=1;strokeColor=#66B2FF;strokeWidth=6;endFill=0;" parent="1" edge="1">
          <mxGeometry width="50" height="50" relative="1" as="geometry">
            <mxPoint x="-184.00000000001728" y="-475" as="sourcePoint" />
            <mxPoint x="-184" y="-475" as="targetPoint" />
            <Array as="points" />
          </mxGeometry>
        </mxCell>
        <mxCell id="Ria-s_h3xSO_SLDeOQL_-2" value="" style="endArrow=none;html=1;rounded=1;strokeColor=#66B2FF;strokeWidth=6;endFill=0;" parent="1" edge="1">
          <mxGeometry width="50" height="50" relative="1" as="geometry">
            <mxPoint x="-169" y="-350" as="sourcePoint" />
            <mxPoint x="-119" y="-395" as="targetPoint" />
            <Array as="points">
              <mxPoint x="-119" y="-350" />
            </Array>
          </mxGeometry>
        </mxCell>
        <mxCell id="2lCTwFAhln7CDwlXWDaY-96" value="" style="endArrow=none;html=1;rounded=1;labelBackgroundColor=default;strokeColor=#FF0000;strokeWidth=6;fontFamily=Helvetica;fontSize=11;fontColor=default;startSize=0;endSize=0;shape=connector;exitX=0.5;exitY=1;exitDx=0;exitDy=0;entryX=0.5;entryY=0;entryDx=0;entryDy=0;" parent="1" target="2lCTwFAhln7CDwlXWDaY-93" edge="1">
          <mxGeometry width="50" height="50" relative="1" as="geometry">
            <mxPoint x="-119" y="-235" as="sourcePoint" />
            <mxPoint x="-124" y="-325" as="targetPoint" />
          </mxGeometry>
        </mxCell>
        <mxCell id="2lCTwFAhln7CDwlXWDaY-95" value="" style="endArrow=none;html=1;rounded=1;labelBackgroundColor=default;strokeColor=#FF0000;strokeWidth=6;fontFamily=Helvetica;fontSize=11;fontColor=default;startSize=0;endSize=0;shape=connector;exitX=0.5;exitY=1;exitDx=0;exitDy=0;entryX=0.5;entryY=0;entryDx=0;entryDy=0;" parent="1" source="2lCTwFAhln7CDwlXWDaY-93" target="2lCTwFAhln7CDwlXWDaY-92" edge="1">
          <mxGeometry width="50" height="50" relative="1" as="geometry">
            <mxPoint x="-174" y="-275" as="sourcePoint" />
            <mxPoint x="-84" y="-315" as="targetPoint" />
          </mxGeometry>
        </mxCell>
        <mxCell id="2lCTwFAhln7CDwlXWDaY-91" value="" style="endArrow=none;html=1;rounded=1;labelBackgroundColor=default;strokeColor=#FF0000;strokeWidth=6;fontFamily=Helvetica;fontSize=11;fontColor=default;startSize=0;endSize=0;shape=connector;exitX=1;exitY=1;exitDx=0;exitDy=0;" parent="1" source="2lCTwFAhln7CDwlXWDaY-90" edge="1">
          <mxGeometry width="50" height="50" relative="1" as="geometry">
            <mxPoint x="-264" y="-360" as="sourcePoint" />
            <mxPoint x="-328" y="-435" as="targetPoint" />
            <Array as="points">
              <mxPoint x="-318" y="-435" />
            </Array>
          </mxGeometry>
        </mxCell>
        <mxCell id="2lCTwFAhln7CDwlXWDaY-89" value="" style="endArrow=none;html=1;rounded=1;labelBackgroundColor=default;strokeColor=#FF0000;strokeWidth=6;fontFamily=Helvetica;fontSize=11;fontColor=default;startSize=0;endSize=0;shape=connector;exitX=1;exitY=1;exitDx=0;exitDy=0;entryX=0.5;entryY=0.5;entryDx=0;entryDy=0;entryPerimeter=0;" parent="1" target="2lCTwFAhln7CDwlXWDaY-90" edge="1">
          <mxGeometry width="50" height="50" relative="1" as="geometry">
            <mxPoint x="-240.46446609406723" y="-351.4644660940671" as="sourcePoint" />
            <mxPoint x="-229" y="-400" as="targetPoint" />
          </mxGeometry>
        </mxCell>
        <mxCell id="2lCTwFAhln7CDwlXWDaY-88" value="" style="endArrow=none;html=1;rounded=1;labelBackgroundColor=default;strokeColor=#FF0000;strokeWidth=6;fontFamily=Helvetica;fontSize=11;fontColor=default;startSize=0;endSize=0;shape=connector;" parent="1" edge="1">
          <mxGeometry width="50" height="50" relative="1" as="geometry">
            <mxPoint x="-219" y="-345" as="sourcePoint" />
            <mxPoint x="-169" y="-345" as="targetPoint" />
            <Array as="points" />
          </mxGeometry>
        </mxCell>
        <mxCell id="2lCTwFAhln7CDwlXWDaY-76" value="" style="endArrow=none;html=1;rounded=1;labelBackgroundColor=default;strokeColor=#FF0000;strokeWidth=6;fontFamily=Helvetica;fontSize=11;fontColor=default;startSize=0;endSize=0;shape=connector;exitX=0;exitY=1;exitDx=0;exitDy=0;" parent="1" source="2lCTwFAhln7CDwlXWDaY-73" edge="1">
          <mxGeometry width="50" height="50" relative="1" as="geometry">
            <mxPoint x="-419" y="-440" as="sourcePoint" />
            <mxPoint x="-322" y="-435" as="targetPoint" />
            <Array as="points">
              <mxPoint x="-444" y="-435" />
            </Array>
          </mxGeometry>
        </mxCell>
        <mxCell id="2lCTwFAhln7CDwlXWDaY-72" value="" style="endArrow=none;html=1;rounded=1;labelBackgroundColor=default;strokeColor=#FF0000;strokeWidth=6;fontFamily=Helvetica;fontSize=11;fontColor=default;startSize=0;endSize=0;shape=connector;exitX=0.5;exitY=1;exitDx=0;exitDy=0;fillColor=#FF0000;" parent="1" edge="1">
          <mxGeometry width="50" height="50" relative="1" as="geometry">
            <mxPoint x="-474" y="-390" as="sourcePoint" />
            <mxPoint x="-454" y="-425" as="targetPoint" />
            <Array as="points">
              <mxPoint x="-474" y="-405" />
            </Array>
          </mxGeometry>
        </mxCell>
        <mxCell id="2lCTwFAhln7CDwlXWDaY-69" value="" style="endArrow=none;html=1;rounded=1;labelBackgroundColor=default;strokeColor=#FF0000;strokeWidth=6;fontFamily=Helvetica;fontSize=11;fontColor=default;startSize=0;endSize=0;shape=connector;exitX=0.5;exitY=1;exitDx=0;exitDy=0;" parent="1" source="2lCTwFAhln7CDwlXWDaY-64" edge="1">
          <mxGeometry width="50" height="50" relative="1" as="geometry">
            <mxPoint x="-454" y="-335" as="sourcePoint" />
            <mxPoint x="-474" y="-395" as="targetPoint" />
          </mxGeometry>
        </mxCell>
        <mxCell id="2lCTwFAhln7CDwlXWDaY-63" value="" style="endArrow=none;html=1;rounded=1;labelBackgroundColor=default;strokeColor=#FF0000;strokeWidth=6;fontFamily=Helvetica;fontSize=11;fontColor=default;startSize=0;endSize=0;shape=connector;exitX=0.5;exitY=1;exitDx=0;exitDy=0;entryX=0.5;entryY=0;entryDx=0;entryDy=0;" parent="1" source="2lCTwFAhln7CDwlXWDaY-56" target="2lCTwFAhln7CDwlXWDaY-64" edge="1">
          <mxGeometry width="50" height="50" relative="1" as="geometry">
            <mxPoint x="-334" y="-325" as="sourcePoint" />
            <mxPoint x="-474" y="-350" as="targetPoint" />
          </mxGeometry>
        </mxCell>
        <mxCell id="2lCTwFAhln7CDwlXWDaY-54" value="" style="endArrow=none;html=1;rounded=1;labelBackgroundColor=default;strokeColor=#FF0000;strokeWidth=6;fontFamily=Helvetica;fontSize=11;fontColor=default;startSize=0;endSize=0;shape=connector;entryX=0.5;entryY=0;entryDx=0;entryDy=0;" parent="1" target="2lCTwFAhln7CDwlXWDaY-56" edge="1">
          <mxGeometry width="50" height="50" relative="1" as="geometry">
            <mxPoint x="-474" y="-255" as="sourcePoint" />
            <mxPoint x="-464" y="-345" as="targetPoint" />
            <Array as="points" />
          </mxGeometry>
        </mxCell>
        <mxCell id="2lCTwFAhln7CDwlXWDaY-45" value="" style="endArrow=none;html=1;rounded=1;labelBackgroundColor=default;strokeColor=#FF0000;strokeWidth=6;fontFamily=Helvetica;fontSize=11;fontColor=default;startSize=0;endSize=0;shape=connector;entryX=1;entryY=1;entryDx=0;entryDy=0;" parent="1" target="2lCTwFAhln7CDwlXWDaY-42" edge="1">
          <mxGeometry width="50" height="50" relative="1" as="geometry">
            <mxPoint x="-474" y="-255" as="sourcePoint" />
            <mxPoint x="-489" y="-190" as="targetPoint" />
            <Array as="points">
              <mxPoint x="-474" y="-195" />
            </Array>
          </mxGeometry>
        </mxCell>
        <mxCell id="2lCTwFAhln7CDwlXWDaY-41" value="" style="endArrow=none;html=1;rounded=1;labelBackgroundColor=default;strokeColor=#FF0000;strokeWidth=6;fontFamily=Helvetica;fontSize=11;fontColor=default;startSize=0;endSize=0;shape=connector;entryX=1;entryY=0;entryDx=0;entryDy=0;exitX=0;exitY=0;exitDx=0;exitDy=0;" parent="1" source="2lCTwFAhln7CDwlXWDaY-42" target="2lCTwFAhln7CDwlXWDaY-32" edge="1">
          <mxGeometry width="50" height="50" relative="1" as="geometry">
            <mxPoint x="-454" y="-195" as="sourcePoint" />
            <mxPoint x="-364" y="-195" as="targetPoint" />
            <Array as="points">
              <mxPoint x="-444" y="-165" />
              <mxPoint x="-374" y="-165" />
            </Array>
          </mxGeometry>
        </mxCell>
        <mxCell id="2lCTwFAhln7CDwlXWDaY-39" value="" style="endArrow=none;html=1;rounded=1;labelBackgroundColor=default;strokeColor=#808080;strokeWidth=6;fontFamily=Helvetica;fontSize=11;fontColor=default;startSize=0;endSize=0;shape=connector;entryX=0.397;entryY=0.989;entryDx=0;entryDy=0;exitX=1;exitY=0.5;exitDx=0;exitDy=0;entryPerimeter=0;" parent="1" source="LhJ2MKZEmk0QEzE14GEJ-2" edge="1">
          <mxGeometry width="50" height="50" relative="1" as="geometry">
            <mxPoint x="-264" y="-195" as="sourcePoint" />
            <mxPoint x="-125.18000000000006" y="-235.22000000000003" as="targetPoint" />
            <Array as="points">
              <mxPoint x="-149" y="-205" />
              <mxPoint x="-125" y="-205" />
            </Array>
          </mxGeometry>
        </mxCell>
        <mxCell id="2lCTwFAhln7CDwlXWDaY-34" value="" style="endArrow=none;html=1;rounded=1;labelBackgroundColor=default;strokeColor=#FF0000;strokeWidth=6;fontFamily=Helvetica;fontSize=11;fontColor=default;startSize=0;endSize=0;shape=connector;entryX=0;entryY=1;entryDx=0;entryDy=0;" parent="1" target="2lCTwFAhln7CDwlXWDaY-32" edge="1">
          <mxGeometry width="50" height="50" relative="1" as="geometry">
            <mxPoint x="-274" y="-145" as="sourcePoint" />
            <mxPoint x="-314" y="-220" as="targetPoint" />
            <Array as="points">
              <mxPoint x="-274" y="-235" />
              <mxPoint x="-304" y="-235" />
            </Array>
          </mxGeometry>
        </mxCell>
        <mxCell id="2lCTwFAhln7CDwlXWDaY-20" value="" style="endArrow=none;html=1;rounded=1;labelBackgroundColor=default;strokeColor=#FF0000;strokeWidth=6;fontFamily=Helvetica;fontSize=11;fontColor=default;startSize=0;endSize=0;shape=connector;exitX=0.807;exitY=0.777;exitDx=0;exitDy=0;exitPerimeter=0;" parent="1" source="2lCTwFAhln7CDwlXWDaY-9" edge="1">
          <mxGeometry width="50" height="50" relative="1" as="geometry">
            <mxPoint x="-234" y="-60" as="sourcePoint" />
            <mxPoint x="-274" y="-165" as="targetPoint" />
            <Array as="points">
              <mxPoint x="-274" y="-115" />
            </Array>
          </mxGeometry>
        </mxCell>
        <mxCell id="2lCTwFAhln7CDwlXWDaY-5" value="" style="endArrow=none;html=1;rounded=1;labelBackgroundColor=default;strokeColor=#FF0000;strokeWidth=6;fontFamily=Helvetica;fontSize=11;fontColor=default;startSize=0;endSize=0;shape=connector;entryX=1;entryY=0;entryDx=0;entryDy=0;" parent="1" target="2lCTwFAhln7CDwlXWDaY-3" edge="1">
          <mxGeometry width="50" height="50" relative="1" as="geometry">
            <mxPoint x="-172" y="-60" as="sourcePoint" />
            <mxPoint x="-169" y="-130" as="targetPoint" />
            <Array as="points">
              <mxPoint x="-149" y="-60" />
              <mxPoint x="-149" y="-145" />
            </Array>
          </mxGeometry>
        </mxCell>
        <mxCell id="2lCTwFAhln7CDwlXWDaY-2" value="" style="endArrow=none;html=1;rounded=1;strokeColor=#FF0000;strokeWidth=6;startSize=0;endSize=0;startArrow=none;entryX=0.5;entryY=0;entryDx=0;entryDy=0;exitX=0;exitY=1;exitDx=0;exitDy=0;" parent="1" source="2lCTwFAhln7CDwlXWDaY-3" edge="1">
          <mxGeometry width="50" height="50" relative="1" as="geometry">
            <mxPoint x="-164" y="-135" as="sourcePoint" />
            <mxPoint x="-119" y="-255" as="targetPoint" />
            <Array as="points">
              <mxPoint x="-119" y="-175" />
              <mxPoint x="-119" y="-215" />
            </Array>
          </mxGeometry>
        </mxCell>
        <mxCell id="2lCTwFAhln7CDwlXWDaY-8" value="" style="group" parent="1" connectable="0" vertex="1">
          <mxGeometry x="-189" y="-180" width="95" height="30" as="geometry" />
        </mxCell>
        <mxCell id="2lCTwFAhln7CDwlXWDaY-3" value="" style="ellipse;whiteSpace=wrap;html=1;aspect=fixed;" parent="2lCTwFAhln7CDwlXWDaY-8" vertex="1">
          <mxGeometry x="48.61111111111111" y="15" width="10" height="10" as="geometry" />
        </mxCell>
        <mxCell id="2lCTwFAhln7CDwlXWDaY-43" value="&lt;font style=&quot;font-size: 12px;&quot;&gt;&lt;font style=&quot;font-size: 12px;&quot; color=&quot;#ffffff&quot;&gt;&lt;b style=&quot;&quot;&gt;環状線&lt;/b&gt;&lt;/font&gt;&lt;/font&gt;" style="rounded=1;whiteSpace=wrap;html=1;fontFamily=Helvetica;fontSize=11;fontColor=default;strokeColor=none;fillColor=#FF0000;opacity=90;" parent="1" vertex="1">
          <mxGeometry x="-359" y="-255" width="45" height="20" as="geometry" />
        </mxCell>
        <mxCell id="2lCTwFAhln7CDwlXWDaY-46" value="" style="group" parent="1" connectable="0" vertex="1">
          <mxGeometry x="-399" y="-225" width="70" height="25" as="geometry" />
        </mxCell>
        <mxCell id="2lCTwFAhln7CDwlXWDaY-32" value="" style="ellipse;whiteSpace=wrap;html=1;aspect=fixed;" parent="2lCTwFAhln7CDwlXWDaY-46" vertex="1">
          <mxGeometry x="59.230769230769226" y="15" width="10" height="10" as="geometry" />
        </mxCell>
        <mxCell id="2lCTwFAhln7CDwlXWDaY-38" value="&lt;font style=&quot;font-size: 10px;&quot;&gt;&lt;b&gt;西人間の里&lt;/b&gt;&lt;/font&gt;" style="text;html=1;strokeColor=none;fillColor=none;align=center;verticalAlign=middle;whiteSpace=wrap;rounded=0;fontSize=11;fontFamily=Helvetica;fontColor=default;" parent="2lCTwFAhln7CDwlXWDaY-46" vertex="1">
          <mxGeometry x="-5" width="64.23" height="15" as="geometry" />
        </mxCell>
        <mxCell id="2lCTwFAhln7CDwlXWDaY-47" value="" style="group" parent="1" connectable="0" vertex="1">
          <mxGeometry x="-498" y="-186" width="42.5" height="25" as="geometry" />
        </mxCell>
        <mxCell id="2lCTwFAhln7CDwlXWDaY-42" value="" style="ellipse;whiteSpace=wrap;html=1;aspect=fixed;" parent="2lCTwFAhln7CDwlXWDaY-47" vertex="1">
          <mxGeometry x="32.5" width="10" height="10" as="geometry" />
        </mxCell>
        <mxCell id="2lCTwFAhln7CDwlXWDaY-44" value="&lt;b&gt;&lt;font style=&quot;font-size: 10px;&quot;&gt;命蓮寺&lt;/font&gt;&lt;/b&gt;" style="text;html=1;strokeColor=none;fillColor=none;align=center;verticalAlign=middle;whiteSpace=wrap;rounded=0;fontSize=11;fontFamily=Helvetica;fontColor=default;" parent="2lCTwFAhln7CDwlXWDaY-47" vertex="1">
          <mxGeometry x="-5" y="10" width="37.5" height="15" as="geometry" />
        </mxCell>
        <mxCell id="2lCTwFAhln7CDwlXWDaY-53" value="" style="group" parent="1" connectable="0" vertex="1">
          <mxGeometry x="-524" y="-237" width="50" height="15" as="geometry" />
        </mxCell>
        <mxCell id="2lCTwFAhln7CDwlXWDaY-52" value="&lt;b&gt;&lt;font style=&quot;font-size: 10px;&quot;&gt;北命蓮寺&lt;/font&gt;&lt;/b&gt;" style="text;html=1;strokeColor=none;fillColor=none;align=center;verticalAlign=middle;whiteSpace=wrap;rounded=0;fontSize=11;fontFamily=Helvetica;fontColor=default;" parent="2lCTwFAhln7CDwlXWDaY-53" vertex="1">
          <mxGeometry x="-4.166666666666666" width="41.66666666666666" height="15" as="geometry" />
        </mxCell>
        <mxCell id="2lCTwFAhln7CDwlXWDaY-61" value="" style="group" parent="1" connectable="0" vertex="1">
          <mxGeometry x="-539" y="-288" width="70" height="15" as="geometry" />
        </mxCell>
        <mxCell id="2lCTwFAhln7CDwlXWDaY-55" value="&lt;b&gt;&lt;font style=&quot;font-size: 10px;&quot;&gt;妖怪の樹海&lt;/font&gt;&lt;/b&gt;" style="text;html=1;strokeColor=none;fillColor=none;align=center;verticalAlign=middle;whiteSpace=wrap;rounded=0;fontSize=11;fontFamily=Helvetica;fontColor=default;" parent="2lCTwFAhln7CDwlXWDaY-61" vertex="1">
          <mxGeometry x="-10" y="-2.5" width="65" height="15" as="geometry" />
        </mxCell>
        <mxCell id="2lCTwFAhln7CDwlXWDaY-56" value="" style="ellipse;whiteSpace=wrap;html=1;aspect=fixed;" parent="2lCTwFAhln7CDwlXWDaY-61" vertex="1">
          <mxGeometry x="60" width="10" height="10" as="geometry" />
        </mxCell>
        <mxCell id="2lCTwFAhln7CDwlXWDaY-68" value="" style="group" parent="1" connectable="0" vertex="1">
          <mxGeometry x="-509" y="-348" width="40" height="15" as="geometry" />
        </mxCell>
        <mxCell id="2lCTwFAhln7CDwlXWDaY-64" value="" style="ellipse;whiteSpace=wrap;html=1;aspect=fixed;" parent="2lCTwFAhln7CDwlXWDaY-68" vertex="1">
          <mxGeometry x="30" y="2.5" width="10" height="10" as="geometry" />
        </mxCell>
        <mxCell id="2lCTwFAhln7CDwlXWDaY-65" value="&lt;b style=&quot;&quot;&gt;&lt;font style=&quot;font-size: 10px;&quot;&gt;草田&lt;/font&gt;&lt;/b&gt;" style="text;html=1;strokeColor=none;fillColor=none;align=center;verticalAlign=middle;whiteSpace=wrap;rounded=0;fontSize=11;fontFamily=Helvetica;fontColor=default;" parent="2lCTwFAhln7CDwlXWDaY-68" vertex="1">
          <mxGeometry x="-5" width="30" height="15" as="geometry" />
        </mxCell>
        <mxCell id="2lCTwFAhln7CDwlXWDaY-71" value="&lt;font size=&quot;1&quot; color=&quot;#ffffff&quot;&gt;&lt;b style=&quot;font-size: 12px;&quot;&gt;博麗守矢ライン&lt;/b&gt;&lt;/font&gt;" style="rounded=1;whiteSpace=wrap;html=1;fontFamily=Helvetica;fontSize=11;fontColor=default;strokeColor=none;fillColor=#808080;opacity=90;" parent="1" vertex="1">
          <mxGeometry x="-244" y="-195" width="95" height="20" as="geometry" />
        </mxCell>
        <mxCell id="2lCTwFAhln7CDwlXWDaY-75" value="" style="group" parent="1" connectable="0" vertex="1">
          <mxGeometry x="-541" y="-402.5" width="55" height="15" as="geometry" />
        </mxCell>
        <mxCell id="2lCTwFAhln7CDwlXWDaY-67" value="&lt;b&gt;&lt;font style=&quot;font-size: 10px;&quot;&gt;守矢神社&lt;/font&gt;&lt;/b&gt;" style="text;html=1;strokeColor=none;fillColor=none;align=center;verticalAlign=middle;whiteSpace=wrap;rounded=0;fontSize=11;fontFamily=Helvetica;fontColor=default;" parent="2lCTwFAhln7CDwlXWDaY-75" vertex="1">
          <mxGeometry x="2.996666666666666" width="45.833333333333336" height="15" as="geometry" />
        </mxCell>
        <mxCell id="2lCTwFAhln7CDwlXWDaY-79" value="" style="group" parent="1" connectable="0" vertex="1">
          <mxGeometry x="-403" y="-421" width="55" height="25" as="geometry" />
        </mxCell>
        <mxCell id="2lCTwFAhln7CDwlXWDaY-78" value="&lt;b&gt;&lt;font style=&quot;font-size: 10px;&quot;&gt;玄武の沢&lt;/font&gt;&lt;/b&gt;" style="text;html=1;strokeColor=none;fillColor=none;align=center;verticalAlign=middle;whiteSpace=wrap;rounded=0;fontSize=11;fontFamily=Helvetica;fontColor=default;" parent="2lCTwFAhln7CDwlXWDaY-79" vertex="1">
          <mxGeometry x="10" y="-8" width="50" height="15" as="geometry" />
        </mxCell>
        <mxCell id="2lCTwFAhln7CDwlXWDaY-80" value="" style="group" parent="1" connectable="0" vertex="1">
          <mxGeometry x="-504" y="-445" width="55" height="35" as="geometry" />
        </mxCell>
        <mxCell id="2lCTwFAhln7CDwlXWDaY-73" value="" style="ellipse;whiteSpace=wrap;html=1;aspect=fixed;" parent="2lCTwFAhln7CDwlXWDaY-80" vertex="1">
          <mxGeometry x="45" y="15" width="10" height="10" as="geometry" />
        </mxCell>
        <mxCell id="2lCTwFAhln7CDwlXWDaY-90" value="" style="ellipse;whiteSpace=wrap;html=1;aspect=fixed;" parent="1" vertex="1">
          <mxGeometry x="-284" y="-397" width="10" height="10" as="geometry" />
        </mxCell>
        <mxCell id="2lCTwFAhln7CDwlXWDaY-92" value="" style="ellipse;whiteSpace=wrap;html=1;aspect=fixed;" parent="1" vertex="1">
          <mxGeometry x="-124" y="-320" width="10" height="10" as="geometry" />
        </mxCell>
        <mxCell id="2lCTwFAhln7CDwlXWDaY-104" value="" style="group" parent="1" connectable="0" vertex="1">
          <mxGeometry x="-64" y="-440" width="16" height="16" as="geometry" />
        </mxCell>
        <mxCell id="2lCTwFAhln7CDwlXWDaY-99" value="" style="endArrow=none;html=1;rounded=1;labelBackgroundColor=default;strokeColor=#FFFFFF;strokeWidth=1;fontFamily=Helvetica;fontSize=11;fontColor=default;startSize=0;endSize=0;shape=connector;" parent="2lCTwFAhln7CDwlXWDaY-104" edge="1">
          <mxGeometry width="50" height="50" relative="1" as="geometry">
            <mxPoint x="4" y="2" as="sourcePoint" />
            <mxPoint x="14" y="12" as="targetPoint" />
          </mxGeometry>
        </mxCell>
        <mxCell id="2lCTwFAhln7CDwlXWDaY-100" value="" style="endArrow=none;html=1;rounded=1;labelBackgroundColor=default;strokeColor=#FFFFFF;strokeWidth=1;fontFamily=Helvetica;fontSize=11;fontColor=default;startSize=0;endSize=0;shape=connector;" parent="2lCTwFAhln7CDwlXWDaY-104" edge="1">
          <mxGeometry width="50" height="50" relative="1" as="geometry">
            <mxPoint y="6" as="sourcePoint" />
            <mxPoint x="10" y="16" as="targetPoint" />
          </mxGeometry>
        </mxCell>
        <mxCell id="2lCTwFAhln7CDwlXWDaY-102" value="" style="endArrow=none;html=1;rounded=1;labelBackgroundColor=default;strokeColor=#FFFFFF;strokeWidth=1;fontFamily=Helvetica;fontSize=11;fontColor=default;startSize=0;endSize=0;shape=connector;" parent="2lCTwFAhln7CDwlXWDaY-104" edge="1">
          <mxGeometry width="50" height="50" relative="1" as="geometry">
            <mxPoint x="2" y="4" as="sourcePoint" />
            <mxPoint x="12" y="14" as="targetPoint" />
          </mxGeometry>
        </mxCell>
        <mxCell id="2lCTwFAhln7CDwlXWDaY-103" value="" style="endArrow=none;html=1;rounded=1;labelBackgroundColor=default;strokeColor=#FFFFFF;strokeWidth=1;fontFamily=Helvetica;fontSize=11;fontColor=default;startSize=0;endSize=0;shape=connector;" parent="2lCTwFAhln7CDwlXWDaY-104" edge="1">
          <mxGeometry width="50" height="50" relative="1" as="geometry">
            <mxPoint x="6" as="sourcePoint" />
            <mxPoint x="16" y="10" as="targetPoint" />
          </mxGeometry>
        </mxCell>
        <mxCell id="2lCTwFAhln7CDwlXWDaY-109" value="" style="group" parent="1" connectable="0" vertex="1">
          <mxGeometry x="-164" y="-282.5" width="50" height="15" as="geometry" />
        </mxCell>
        <mxCell id="2lCTwFAhln7CDwlXWDaY-93" value="" style="ellipse;whiteSpace=wrap;html=1;aspect=fixed;" parent="2lCTwFAhln7CDwlXWDaY-109" vertex="1">
          <mxGeometry x="40" y="2.5" width="10" height="10" as="geometry" />
        </mxCell>
        <mxCell id="2lCTwFAhln7CDwlXWDaY-108" value="&lt;span style=&quot;font-size: 10px;&quot;&gt;&lt;b&gt;北博麗&lt;/b&gt;&lt;/span&gt;" style="text;html=1;strokeColor=none;fillColor=none;align=center;verticalAlign=middle;whiteSpace=wrap;rounded=0;fontSize=11;fontFamily=Helvetica;fontColor=default;" parent="2lCTwFAhln7CDwlXWDaY-109" vertex="1">
          <mxGeometry x="-5" width="40" height="15" as="geometry" />
        </mxCell>
        <mxCell id="2lCTwFAhln7CDwlXWDaY-110" value="&lt;b&gt;&lt;font style=&quot;font-size: 10px;&quot;&gt;上霧の湖&lt;/font&gt;&lt;/b&gt;" style="text;html=1;strokeColor=none;fillColor=none;align=center;verticalAlign=middle;whiteSpace=wrap;rounded=0;fontSize=11;fontFamily=Helvetica;fontColor=default;" parent="1" vertex="1">
          <mxGeometry x="-179" y="-322.5" width="50" height="15" as="geometry" />
        </mxCell>
        <mxCell id="2lCTwFAhln7CDwlXWDaY-111" value="&lt;b&gt;&lt;font style=&quot;font-size: 10px;&quot;&gt;霧の湖&lt;/font&gt;&lt;/b&gt;" style="text;html=1;strokeColor=none;fillColor=none;align=center;verticalAlign=middle;whiteSpace=wrap;rounded=0;fontSize=11;fontFamily=Helvetica;fontColor=default;" parent="1" vertex="1">
          <mxGeometry x="-224" y="-370" width="37.5" height="15" as="geometry" />
        </mxCell>
        <mxCell id="2lCTwFAhln7CDwlXWDaY-112" value="&lt;span style=&quot;font-size: 10px;&quot;&gt;&lt;b&gt;魔法の森&lt;/b&gt;&lt;/span&gt;" style="text;html=1;strokeColor=none;fillColor=none;align=center;verticalAlign=middle;whiteSpace=wrap;rounded=0;fontSize=11;fontFamily=Helvetica;fontColor=default;" parent="1" vertex="1">
          <mxGeometry x="-304" y="-355" width="50" height="15" as="geometry" />
        </mxCell>
        <mxCell id="2lCTwFAhln7CDwlXWDaY-113" value="&lt;b&gt;&lt;font style=&quot;font-size: 10px;&quot;&gt;香霖堂前&lt;/font&gt;&lt;/b&gt;" style="text;html=1;strokeColor=none;fillColor=none;align=center;verticalAlign=middle;whiteSpace=wrap;rounded=0;fontSize=11;fontFamily=Helvetica;fontColor=default;" parent="1" vertex="1">
          <mxGeometry x="-334" y="-387" width="50" height="15" as="geometry" />
        </mxCell>
        <mxCell id="2lCTwFAhln7CDwlXWDaY-117" value="&lt;font size=&quot;1&quot; color=&quot;#ffffff&quot;&gt;&lt;b style=&quot;font-size: 12px;&quot;&gt;湖東&lt;/b&gt;&lt;/font&gt;&lt;font size=&quot;1&quot; color=&quot;#ffffff&quot;&gt;&lt;b style=&quot;font-size: 12px;&quot;&gt;線&lt;/b&gt;&lt;/font&gt;" style="rounded=1;whiteSpace=wrap;html=1;fontFamily=Helvetica;fontSize=11;fontColor=default;strokeColor=none;fillColor=#66B2FF;opacity=90;" parent="1" vertex="1">
          <mxGeometry x="-179" y="-420" width="45" height="20" as="geometry" />
        </mxCell>
        <mxCell id="LhJ2MKZEmk0QEzE14GEJ-1" value="" style="group" parent="1" connectable="0" vertex="1">
          <mxGeometry x="-249" y="-225" width="70" height="25" as="geometry" />
        </mxCell>
        <mxCell id="LhJ2MKZEmk0QEzE14GEJ-3" value="&lt;span style=&quot;font-size: 10px;&quot;&gt;&lt;b&gt;獣道&lt;/b&gt;&lt;/span&gt;" style="text;html=1;strokeColor=none;fillColor=none;align=center;verticalAlign=middle;whiteSpace=wrap;rounded=0;fontSize=11;fontFamily=Helvetica;fontColor=default;" parent="1" vertex="1">
          <mxGeometry x="-186.11" y="-230" width="64.23" height="15" as="geometry" />
        </mxCell>
        <mxCell id="LhJ2MKZEmk0QEzE14GEJ-2" value="" style="ellipse;whiteSpace=wrap;html=1;aspect=fixed;" parent="1" vertex="1">
          <mxGeometry x="-158.9992307692308" y="-210" width="10" height="10" as="geometry" />
        </mxCell>
        <mxCell id="LhJ2MKZEmk0QEzE14GEJ-15" value="" style="ellipse;whiteSpace=wrap;html=1;aspect=fixed;" parent="1" vertex="1">
          <mxGeometry x="-218.9992307692308" y="-210" width="10" height="10" as="geometry" />
        </mxCell>
        <mxCell id="LhJ2MKZEmk0QEzE14GEJ-18" value="&lt;span style=&quot;font-size: 10px;&quot;&gt;&lt;b&gt;きりさめ新都心&lt;/b&gt;&lt;/span&gt;" style="text;html=1;strokeColor=none;fillColor=none;align=center;verticalAlign=middle;whiteSpace=wrap;rounded=0;fontSize=11;fontFamily=Helvetica;fontColor=default;" parent="1" vertex="1">
          <mxGeometry x="-246.11" y="-230" width="72.11" height="15" as="geometry" />
        </mxCell>
        <mxCell id="Ria-s_h3xSO_SLDeOQL_-1" value="" style="ellipse;whiteSpace=wrap;html=1;aspect=fixed;" parent="1" vertex="1">
          <mxGeometry x="-124" y="-390" width="10" height="10" as="geometry" />
        </mxCell>
        <mxCell id="Ria-s_h3xSO_SLDeOQL_-3" value="&lt;span style=&quot;font-size: 10px;&quot;&gt;&lt;b&gt;ヴワル&lt;/b&gt;&lt;/span&gt;" style="text;html=1;strokeColor=none;fillColor=none;align=center;verticalAlign=middle;whiteSpace=wrap;rounded=0;fontSize=11;fontFamily=Helvetica;fontColor=default;" parent="1" vertex="1">
          <mxGeometry x="-164" y="-392.5" width="37.5" height="15" as="geometry" />
        </mxCell>
        <mxCell id="Ria-s_h3xSO_SLDeOQL_-8" value="" style="ellipse;whiteSpace=wrap;html=1;aspect=fixed;" parent="1" vertex="1">
          <mxGeometry x="-139" y="-460" width="10" height="10" as="geometry" />
        </mxCell>
        <mxCell id="Ria-s_h3xSO_SLDeOQL_-15" value="&lt;b&gt;&lt;font style=&quot;font-size: 10px;&quot;&gt;霧の湖浜&lt;/font&gt;&lt;/b&gt;" style="text;html=1;strokeColor=none;fillColor=none;align=center;verticalAlign=middle;whiteSpace=wrap;rounded=0;fontSize=11;fontFamily=Helvetica;fontColor=default;" parent="1" vertex="1">
          <mxGeometry x="-179" y="-450" width="50" height="15" as="geometry" />
        </mxCell>
        <mxCell id="Ria-s_h3xSO_SLDeOQL_-16" value="&lt;b&gt;&lt;font style=&quot;font-size: 10px;&quot;&gt;再思の道&lt;/font&gt;&lt;/b&gt;" style="text;html=1;strokeColor=none;fillColor=none;align=center;verticalAlign=middle;whiteSpace=wrap;rounded=0;fontSize=11;fontFamily=Helvetica;fontColor=default;" parent="1" vertex="1">
          <mxGeometry x="-199" y="-470" width="50" height="15" as="geometry" />
        </mxCell>
        <mxCell id="Ria-s_h3xSO_SLDeOQL_-24" value="" style="endArrow=none;html=1;rounded=1;labelBackgroundColor=default;strokeColor=#FF0000;strokeWidth=6;fontFamily=Helvetica;fontSize=11;fontColor=default;startSize=0;endSize=0;shape=connector;entryX=0.041;entryY=0.502;entryDx=0;entryDy=0;entryPerimeter=0;" parent="1" target="2lCTwFAhln7CDwlXWDaY-84" edge="1">
          <mxGeometry width="50" height="50" relative="1" as="geometry">
            <mxPoint x="-224" y="-345" as="sourcePoint" />
            <mxPoint x="-192" y="-345" as="targetPoint" />
            <Array as="points" />
          </mxGeometry>
        </mxCell>
        <mxCell id="2lCTwFAhln7CDwlXWDaY-84" value="" style="ellipse;whiteSpace=wrap;html=1;aspect=fixed;" parent="1" vertex="1">
          <mxGeometry x="-209" y="-350" width="10" height="10" as="geometry" />
        </mxCell>
        <mxCell id="Rw5dygfvGm5HHu7KgE6S-1" value="" style="ellipse;whiteSpace=wrap;html=1;aspect=fixed;" parent="1" vertex="1">
          <mxGeometry x="-219" y="-540" width="10" height="10" as="geometry" />
        </mxCell>
        <mxCell id="Rw5dygfvGm5HHu7KgE6S-4" value="" style="ellipse;whiteSpace=wrap;html=1;aspect=fixed;" parent="1" vertex="1">
          <mxGeometry x="-259" y="-560" width="10" height="10" as="geometry" />
        </mxCell>
        <mxCell id="Rw5dygfvGm5HHu7KgE6S-6" value="" style="ellipse;whiteSpace=wrap;html=1;aspect=fixed;" parent="1" vertex="1">
          <mxGeometry x="-279" y="-640" width="10" height="10" as="geometry" />
        </mxCell>
        <mxCell id="Rw5dygfvGm5HHu7KgE6S-10" value="" style="ellipse;whiteSpace=wrap;html=1;aspect=fixed;" parent="1" vertex="1">
          <mxGeometry x="-339" y="-560" width="10" height="10" as="geometry" />
        </mxCell>
        <mxCell id="Rw5dygfvGm5HHu7KgE6S-11" value="" style="ellipse;whiteSpace=wrap;html=1;aspect=fixed;" parent="1" vertex="1">
          <mxGeometry x="-399" y="-640" width="10" height="10" as="geometry" />
        </mxCell>
        <mxCell id="Rw5dygfvGm5HHu7KgE6S-12" value="" style="ellipse;whiteSpace=wrap;html=1;aspect=fixed;" parent="1" vertex="1">
          <mxGeometry x="-379" y="-560" width="10" height="10" as="geometry" />
        </mxCell>
        <mxCell id="Rw5dygfvGm5HHu7KgE6S-13" value="" style="ellipse;whiteSpace=wrap;html=1;aspect=fixed;" parent="1" vertex="1">
          <mxGeometry x="-459" y="-640" width="10" height="10" as="geometry" />
        </mxCell>
        <mxCell id="Rw5dygfvGm5HHu7KgE6S-14" value="" style="ellipse;whiteSpace=wrap;html=1;aspect=fixed;" parent="1" vertex="1">
          <mxGeometry x="-419" y="-560" width="10" height="10" as="geometry" />
        </mxCell>
        <mxCell id="Rw5dygfvGm5HHu7KgE6S-15" value="" style="ellipse;whiteSpace=wrap;html=1;aspect=fixed;" parent="1" vertex="1">
          <mxGeometry x="-479" y="-620" width="10" height="10" as="geometry" />
        </mxCell>
        <mxCell id="Rw5dygfvGm5HHu7KgE6S-16" value="" style="ellipse;whiteSpace=wrap;html=1;aspect=fixed;" parent="1" vertex="1">
          <mxGeometry x="-459" y="-560" width="10" height="10" as="geometry" />
        </mxCell>
        <mxCell id="Rw5dygfvGm5HHu7KgE6S-17" value="" style="ellipse;whiteSpace=wrap;html=1;aspect=fixed;" parent="1" vertex="1">
          <mxGeometry x="-179" y="-680" width="10" height="10" as="geometry" />
        </mxCell>
        <mxCell id="Rw5dygfvGm5HHu7KgE6S-18" value="" style="ellipse;whiteSpace=wrap;html=1;aspect=fixed;" parent="1" vertex="1">
          <mxGeometry x="-219" y="-640" width="10" height="10" as="geometry" />
        </mxCell>
        <mxCell id="Rw5dygfvGm5HHu7KgE6S-25" value="" style="ellipse;whiteSpace=wrap;html=1;aspect=fixed;" parent="1" vertex="1">
          <mxGeometry x="-179" y="-761" width="10" height="10" as="geometry" />
        </mxCell>
        <mxCell id="Rw5dygfvGm5HHu7KgE6S-26" value="" style="ellipse;whiteSpace=wrap;html=1;aspect=fixed;" parent="1" vertex="1">
          <mxGeometry x="-191.5" y="-787.5" width="10" height="10" as="geometry" />
        </mxCell>
        <mxCell id="Rw5dygfvGm5HHu7KgE6S-27" value="" style="ellipse;whiteSpace=wrap;html=1;aspect=fixed;" parent="1" vertex="1">
          <mxGeometry x="-219" y="-800" width="10" height="10" as="geometry" />
        </mxCell>
        <mxCell id="Rw5dygfvGm5HHu7KgE6S-28" value="" style="ellipse;whiteSpace=wrap;html=1;aspect=fixed;" parent="1" vertex="1">
          <mxGeometry x="-259" y="-800" width="10" height="10" as="geometry" />
        </mxCell>
        <mxCell id="Rw5dygfvGm5HHu7KgE6S-29" value="" style="ellipse;whiteSpace=wrap;html=1;aspect=fixed;" parent="1" vertex="1">
          <mxGeometry x="-299" y="-800" width="10" height="10" as="geometry" />
        </mxCell>
        <mxCell id="Rw5dygfvGm5HHu7KgE6S-30" value="" style="ellipse;whiteSpace=wrap;html=1;aspect=fixed;" parent="1" vertex="1">
          <mxGeometry x="-339" y="-800" width="10" height="10" as="geometry" />
        </mxCell>
        <mxCell id="Rw5dygfvGm5HHu7KgE6S-31" value="" style="ellipse;whiteSpace=wrap;html=1;aspect=fixed;" parent="1" vertex="1">
          <mxGeometry x="-379" y="-800" width="10" height="10" as="geometry" />
        </mxCell>
        <mxCell id="Rw5dygfvGm5HHu7KgE6S-32" value="" style="ellipse;whiteSpace=wrap;html=1;aspect=fixed;" parent="1" vertex="1">
          <mxGeometry x="-419" y="-800" width="10" height="10" as="geometry" />
        </mxCell>
        <mxCell id="Rw5dygfvGm5HHu7KgE6S-33" value="" style="ellipse;whiteSpace=wrap;html=1;aspect=fixed;" parent="1" vertex="1">
          <mxGeometry x="-459" y="-800" width="10" height="10" as="geometry" />
        </mxCell>
        <mxCell id="Rw5dygfvGm5HHu7KgE6S-34" value="" style="ellipse;whiteSpace=wrap;html=1;aspect=fixed;" parent="1" vertex="1">
          <mxGeometry x="-479" y="-820" width="10" height="10" as="geometry" />
        </mxCell>
        <mxCell id="Rw5dygfvGm5HHu7KgE6S-35" value="" style="ellipse;whiteSpace=wrap;html=1;aspect=fixed;" parent="1" vertex="1">
          <mxGeometry x="-459" y="-840" width="10" height="10" as="geometry" />
        </mxCell>
        <mxCell id="Rw5dygfvGm5HHu7KgE6S-36" value="" style="ellipse;whiteSpace=wrap;html=1;aspect=fixed;" parent="1" vertex="1">
          <mxGeometry x="-439" y="-860" width="10" height="10" as="geometry" />
        </mxCell>
        <mxCell id="Rw5dygfvGm5HHu7KgE6S-37" value="" style="ellipse;whiteSpace=wrap;html=1;aspect=fixed;" parent="1" vertex="1">
          <mxGeometry x="-444" y="-885" width="10" height="10" as="geometry" />
        </mxCell>
        <mxCell id="Rw5dygfvGm5HHu7KgE6S-38" value="" style="ellipse;whiteSpace=wrap;html=1;aspect=fixed;" parent="1" vertex="1">
          <mxGeometry x="-459" y="-900" width="10" height="10" as="geometry" />
        </mxCell>
        <mxCell id="Rw5dygfvGm5HHu7KgE6S-39" value="" style="ellipse;whiteSpace=wrap;html=1;aspect=fixed;" parent="1" vertex="1">
          <mxGeometry x="-479" y="-935" width="10" height="10" as="geometry" />
        </mxCell>
        <mxCell id="Rw5dygfvGm5HHu7KgE6S-40" value="" style="ellipse;whiteSpace=wrap;html=1;aspect=fixed;" parent="1" vertex="1">
          <mxGeometry x="-489" y="-990" width="10" height="10" as="geometry" />
        </mxCell>
        <mxCell id="Rw5dygfvGm5HHu7KgE6S-44" value="" style="ellipse;whiteSpace=wrap;html=1;aspect=fixed;" parent="1" vertex="1">
          <mxGeometry x="-499" y="-1020" width="10" height="10" as="geometry" />
        </mxCell>
        <mxCell id="Rw5dygfvGm5HHu7KgE6S-45" value="" style="ellipse;whiteSpace=wrap;html=1;aspect=fixed;" parent="1" vertex="1">
          <mxGeometry x="-479" y="-1040" width="10" height="10" as="geometry" />
        </mxCell>
        <mxCell id="Rw5dygfvGm5HHu7KgE6S-46" value="" style="ellipse;whiteSpace=wrap;html=1;aspect=fixed;" parent="1" vertex="1">
          <mxGeometry x="-439" y="-1040" width="10" height="10" as="geometry" />
        </mxCell>
        <mxCell id="Rw5dygfvGm5HHu7KgE6S-47" value="" style="ellipse;whiteSpace=wrap;html=1;aspect=fixed;" parent="1" vertex="1">
          <mxGeometry x="-419" y="-1060" width="10" height="10" as="geometry" />
        </mxCell>
        <mxCell id="Rw5dygfvGm5HHu7KgE6S-48" value="" style="ellipse;whiteSpace=wrap;html=1;aspect=fixed;" parent="1" vertex="1">
          <mxGeometry x="-439" y="-1080" width="10" height="10" as="geometry" />
        </mxCell>
        <mxCell id="Rw5dygfvGm5HHu7KgE6S-52" value="" style="ellipse;whiteSpace=wrap;html=1;aspect=fixed;" parent="1" vertex="1">
          <mxGeometry x="-469" y="-1080" width="10" height="10" as="geometry" />
        </mxCell>
        <mxCell id="Rw5dygfvGm5HHu7KgE6S-53" value="" style="ellipse;whiteSpace=wrap;html=1;aspect=fixed;" parent="1" vertex="1">
          <mxGeometry x="-499" y="-1080" width="10" height="10" as="geometry" />
        </mxCell>
        <mxCell id="Rw5dygfvGm5HHu7KgE6S-54" value="" style="ellipse;whiteSpace=wrap;html=1;aspect=fixed;" parent="1" vertex="1">
          <mxGeometry x="-519" y="-1100" width="10" height="10" as="geometry" />
        </mxCell>
        <mxCell id="Rw5dygfvGm5HHu7KgE6S-55" value="" style="ellipse;whiteSpace=wrap;html=1;aspect=fixed;" parent="1" vertex="1">
          <mxGeometry x="-519" y="-1120" width="10" height="10" as="geometry" />
        </mxCell>
        <mxCell id="Rw5dygfvGm5HHu7KgE6S-56" value="" style="ellipse;whiteSpace=wrap;html=1;aspect=fixed;" parent="1" vertex="1">
          <mxGeometry x="-519" y="-1140" width="10" height="10" as="geometry" />
        </mxCell>
        <mxCell id="Rw5dygfvGm5HHu7KgE6S-57" value="" style="ellipse;whiteSpace=wrap;html=1;aspect=fixed;" parent="1" vertex="1">
          <mxGeometry x="-519" y="-1160" width="10" height="10" as="geometry" />
        </mxCell>
        <mxCell id="Rw5dygfvGm5HHu7KgE6S-58" value="" style="ellipse;whiteSpace=wrap;html=1;aspect=fixed;" parent="1" vertex="1">
          <mxGeometry x="-499" y="-1180" width="10" height="10" as="geometry" />
        </mxCell>
        <mxCell id="Rw5dygfvGm5HHu7KgE6S-59" value="" style="ellipse;whiteSpace=wrap;html=1;aspect=fixed;" parent="1" vertex="1">
          <mxGeometry x="-479" y="-1200" width="10" height="10" as="geometry" />
        </mxCell>
        <mxCell id="Rw5dygfvGm5HHu7KgE6S-60" value="" style="ellipse;whiteSpace=wrap;html=1;aspect=fixed;" parent="1" vertex="1">
          <mxGeometry x="-479" y="-1240" width="10" height="10" as="geometry" />
        </mxCell>
        <mxCell id="Rw5dygfvGm5HHu7KgE6S-62" value="&lt;b&gt;&lt;font style=&quot;font-size: 10px;&quot;&gt;山前大川&lt;/font&gt;&lt;/b&gt;" style="text;html=1;strokeColor=none;fillColor=none;align=center;verticalAlign=middle;whiteSpace=wrap;rounded=0;fontSize=11;fontFamily=Helvetica;fontColor=default;" parent="1" vertex="1">
          <mxGeometry x="-210" y="-543.5" width="50" height="15" as="geometry" />
        </mxCell>
        <mxCell id="Rw5dygfvGm5HHu7KgE6S-63" value="&lt;font style=&quot;font-size: 10px;&quot;&gt;&lt;b&gt;八坂&lt;/b&gt;&lt;/font&gt;" style="text;html=1;strokeColor=none;fillColor=none;align=center;verticalAlign=middle;whiteSpace=wrap;rounded=0;fontSize=11;fontFamily=Helvetica;fontColor=default;" parent="1" vertex="1">
          <mxGeometry x="-279" y="-550" width="50" height="15" as="geometry" />
        </mxCell>
        <mxCell id="Rw5dygfvGm5HHu7KgE6S-64" value="&lt;b&gt;&lt;font style=&quot;font-size: 10px;&quot;&gt;河城&lt;/font&gt;&lt;/b&gt;" style="text;html=1;strokeColor=none;fillColor=none;align=center;verticalAlign=middle;whiteSpace=wrap;rounded=0;fontSize=11;fontFamily=Helvetica;fontColor=default;" parent="1" vertex="1">
          <mxGeometry x="-319" y="-550" width="50" height="15" as="geometry" />
        </mxCell>
        <mxCell id="Rw5dygfvGm5HHu7KgE6S-65" value="&lt;b&gt;&lt;font style=&quot;font-size: 10px;&quot;&gt;北河城&lt;/font&gt;&lt;/b&gt;" style="text;html=1;strokeColor=none;fillColor=none;align=center;verticalAlign=middle;whiteSpace=wrap;rounded=0;fontSize=11;fontFamily=Helvetica;fontColor=default;" parent="1" vertex="1">
          <mxGeometry x="-359" y="-550" width="50" height="15" as="geometry" />
        </mxCell>
        <mxCell id="Rw5dygfvGm5HHu7KgE6S-66" value="&lt;b&gt;&lt;font style=&quot;font-size: 10px;&quot;&gt;中寧&lt;/font&gt;&lt;/b&gt;" style="text;html=1;strokeColor=none;fillColor=none;align=center;verticalAlign=middle;whiteSpace=wrap;rounded=0;fontSize=11;fontFamily=Helvetica;fontColor=default;" parent="1" vertex="1">
          <mxGeometry x="-399" y="-550" width="50" height="15" as="geometry" />
        </mxCell>
        <mxCell id="Rw5dygfvGm5HHu7KgE6S-67" value="&lt;font style=&quot;font-size: 10px;&quot;&gt;&lt;b&gt;山前下田&lt;/b&gt;&lt;/font&gt;" style="text;html=1;strokeColor=none;fillColor=none;align=center;verticalAlign=middle;whiteSpace=wrap;rounded=0;fontSize=11;fontFamily=Helvetica;fontColor=default;" parent="1" vertex="1">
          <mxGeometry x="-439" y="-550" width="50" height="15" as="geometry" />
        </mxCell>
        <mxCell id="Rw5dygfvGm5HHu7KgE6S-68" value="&lt;b&gt;&lt;font style=&quot;font-size: 10px;&quot;&gt;東文&lt;/font&gt;&lt;/b&gt;" style="text;html=1;strokeColor=none;fillColor=none;align=center;verticalAlign=middle;whiteSpace=wrap;rounded=0;fontSize=11;fontFamily=Helvetica;fontColor=default;" parent="1" vertex="1">
          <mxGeometry x="-479" y="-550" width="50" height="15" as="geometry" />
        </mxCell>
        <mxCell id="Rw5dygfvGm5HHu7KgE6S-69" value="&lt;b&gt;&lt;font style=&quot;font-size: 10px;&quot;&gt;文&lt;/font&gt;&lt;/b&gt;" style="text;html=1;strokeColor=none;fillColor=none;align=center;verticalAlign=middle;whiteSpace=wrap;rounded=0;fontSize=11;fontFamily=Helvetica;fontColor=default;" parent="1" vertex="1">
          <mxGeometry x="-499" y="-590" width="15" height="15" as="geometry" />
        </mxCell>
        <mxCell id="Rw5dygfvGm5HHu7KgE6S-70" value="&lt;b&gt;&lt;font style=&quot;font-size: 10px;&quot;&gt;二ノ森&lt;/font&gt;&lt;/b&gt;" style="text;html=1;strokeColor=none;fillColor=none;align=center;verticalAlign=middle;whiteSpace=wrap;rounded=0;fontSize=11;fontFamily=Helvetica;fontColor=default;" parent="1" vertex="1">
          <mxGeometry x="-524" y="-622.5" width="50" height="15" as="geometry" />
        </mxCell>
        <mxCell id="Rw5dygfvGm5HHu7KgE6S-71" value="&lt;b&gt;&lt;font style=&quot;font-size: 10px;&quot;&gt;雨滝&lt;/font&gt;&lt;/b&gt;" style="text;html=1;strokeColor=none;fillColor=none;align=center;verticalAlign=middle;whiteSpace=wrap;rounded=0;fontSize=11;fontFamily=Helvetica;fontColor=default;" parent="1" vertex="1">
          <mxGeometry x="-479" y="-655" width="50" height="15" as="geometry" />
        </mxCell>
        <mxCell id="Rw5dygfvGm5HHu7KgE6S-72" value="&lt;b&gt;&lt;font style=&quot;font-size: 10px;&quot;&gt;静葉&lt;/font&gt;&lt;/b&gt;" style="text;html=1;strokeColor=none;fillColor=none;align=center;verticalAlign=middle;whiteSpace=wrap;rounded=0;fontSize=11;fontFamily=Helvetica;fontColor=default;" parent="1" vertex="1">
          <mxGeometry x="-419" y="-655" width="50" height="15" as="geometry" />
        </mxCell>
        <mxCell id="Rw5dygfvGm5HHu7KgE6S-73" value="&lt;span style=&quot;font-size: 10px;&quot;&gt;&lt;b&gt;もみじ山&lt;/b&gt;&lt;/span&gt;" style="text;html=1;strokeColor=none;fillColor=none;align=center;verticalAlign=middle;whiteSpace=wrap;rounded=0;fontSize=11;fontFamily=Helvetica;fontColor=default;" parent="1" vertex="1">
          <mxGeometry x="-359" y="-655" width="50" height="15" as="geometry" />
        </mxCell>
        <mxCell id="Rw5dygfvGm5HHu7KgE6S-74" value="&lt;font style=&quot;font-size: 10px;&quot;&gt;&lt;b&gt;紫ヶ岡&lt;/b&gt;&lt;/font&gt;" style="text;html=1;strokeColor=none;fillColor=none;align=center;verticalAlign=middle;whiteSpace=wrap;rounded=0;fontSize=11;fontFamily=Helvetica;fontColor=default;" parent="1" vertex="1">
          <mxGeometry x="-299" y="-655" width="50" height="15" as="geometry" />
        </mxCell>
        <mxCell id="Rw5dygfvGm5HHu7KgE6S-75" value="&lt;font style=&quot;font-size: 10px;&quot;&gt;&lt;b&gt;日橋&lt;/b&gt;&lt;/font&gt;" style="text;html=1;strokeColor=none;fillColor=none;align=center;verticalAlign=middle;whiteSpace=wrap;rounded=0;fontSize=11;fontFamily=Helvetica;fontColor=default;" parent="1" vertex="1">
          <mxGeometry x="-239" y="-655" width="50" height="15" as="geometry" />
        </mxCell>
        <mxCell id="Rw5dygfvGm5HHu7KgE6S-76" value="&lt;b&gt;&lt;font style=&quot;font-size: 10px;&quot;&gt;南八雲&lt;/font&gt;&lt;/b&gt;" style="text;html=1;strokeColor=none;fillColor=none;align=center;verticalAlign=middle;whiteSpace=wrap;rounded=0;fontSize=11;fontFamily=Helvetica;fontColor=default;" parent="1" vertex="1">
          <mxGeometry x="-214" y="-682.5" width="35" height="15" as="geometry" />
        </mxCell>
        <mxCell id="Rw5dygfvGm5HHu7KgE6S-77" value="&lt;b&gt;&lt;font style=&quot;font-size: 10px;&quot;&gt;山後大野&lt;/font&gt;&lt;/b&gt;" style="text;html=1;strokeColor=none;fillColor=none;align=center;verticalAlign=middle;whiteSpace=wrap;rounded=0;fontSize=11;fontFamily=Helvetica;fontColor=default;" parent="1" vertex="1">
          <mxGeometry x="-169.88" y="-764.5" width="50" height="15" as="geometry" />
        </mxCell>
        <mxCell id="Rw5dygfvGm5HHu7KgE6S-78" value="&lt;b&gt;&lt;font style=&quot;font-size: 10px;&quot;&gt;堀川&lt;/font&gt;&lt;/b&gt;" style="text;html=1;strokeColor=none;fillColor=none;align=center;verticalAlign=middle;whiteSpace=wrap;rounded=0;fontSize=11;fontFamily=Helvetica;fontColor=default;" parent="1" vertex="1">
          <mxGeometry x="-195" y="-800.5" width="50" height="15" as="geometry" />
        </mxCell>
        <mxCell id="Rw5dygfvGm5HHu7KgE6S-79" value="&lt;b&gt;&lt;font style=&quot;font-size: 10px;&quot;&gt;山後池沼&lt;/font&gt;&lt;/b&gt;" style="text;html=1;strokeColor=none;fillColor=none;align=center;verticalAlign=middle;whiteSpace=wrap;rounded=0;fontSize=11;fontFamily=Helvetica;fontColor=default;" parent="1" vertex="1">
          <mxGeometry x="-239" y="-815" width="50" height="15" as="geometry" />
        </mxCell>
        <mxCell id="Rw5dygfvGm5HHu7KgE6S-80" value="&lt;b&gt;&lt;font style=&quot;font-size: 10px;&quot;&gt;八雲白岡&lt;/font&gt;&lt;/b&gt;" style="text;html=1;strokeColor=none;fillColor=none;align=center;verticalAlign=middle;whiteSpace=wrap;rounded=0;fontSize=11;fontFamily=Helvetica;fontColor=default;" parent="1" vertex="1">
          <mxGeometry x="-279" y="-790" width="50" height="15" as="geometry" />
        </mxCell>
        <mxCell id="Rw5dygfvGm5HHu7KgE6S-81" value="&lt;b&gt;&lt;font style=&quot;font-size: 10px;&quot;&gt;東風谷&lt;/font&gt;&lt;/b&gt;" style="text;html=1;strokeColor=none;fillColor=none;align=center;verticalAlign=middle;whiteSpace=wrap;rounded=0;fontSize=11;fontFamily=Helvetica;fontColor=default;" parent="1" vertex="1">
          <mxGeometry x="-319" y="-815" width="50" height="15" as="geometry" />
        </mxCell>
        <mxCell id="Rw5dygfvGm5HHu7KgE6S-82" value="&lt;b&gt;&lt;font style=&quot;font-size: 10px;&quot;&gt;風谷&lt;/font&gt;&lt;/b&gt;" style="text;html=1;strokeColor=none;fillColor=none;align=center;verticalAlign=middle;whiteSpace=wrap;rounded=0;fontSize=11;fontFamily=Helvetica;fontColor=default;" parent="1" vertex="1">
          <mxGeometry x="-359" y="-790" width="50" height="15" as="geometry" />
        </mxCell>
        <mxCell id="Rw5dygfvGm5HHu7KgE6S-83" value="&lt;b&gt;&lt;font style=&quot;font-size: 10px;&quot;&gt;山見&lt;/font&gt;&lt;/b&gt;" style="text;html=1;strokeColor=none;fillColor=none;align=center;verticalAlign=middle;whiteSpace=wrap;rounded=0;fontSize=11;fontFamily=Helvetica;fontColor=default;" parent="1" vertex="1">
          <mxGeometry x="-399" y="-815" width="50" height="15" as="geometry" />
        </mxCell>
        <mxCell id="Rw5dygfvGm5HHu7KgE6S-84" value="&lt;b&gt;&lt;font style=&quot;font-size: 10px;&quot;&gt;山後中川&lt;/font&gt;&lt;/b&gt;" style="text;html=1;strokeColor=none;fillColor=none;align=center;verticalAlign=middle;whiteSpace=wrap;rounded=0;fontSize=11;fontFamily=Helvetica;fontColor=default;" parent="1" vertex="1">
          <mxGeometry x="-439" y="-790" width="50" height="15" as="geometry" />
        </mxCell>
        <mxCell id="Rw5dygfvGm5HHu7KgE6S-85" value="&lt;b&gt;&lt;font style=&quot;font-size: 10px;&quot;&gt;恵川&lt;/font&gt;&lt;/b&gt;" style="text;html=1;strokeColor=none;fillColor=none;align=center;verticalAlign=middle;whiteSpace=wrap;rounded=0;fontSize=11;fontFamily=Helvetica;fontColor=default;" parent="1" vertex="1">
          <mxGeometry x="-479" y="-815" width="50" height="15" as="geometry" />
        </mxCell>
        <mxCell id="Rw5dygfvGm5HHu7KgE6S-86" value="&lt;b&gt;&lt;font style=&quot;font-size: 10px;&quot;&gt;小野塚&lt;/font&gt;&lt;/b&gt;" style="text;html=1;strokeColor=none;fillColor=none;align=center;verticalAlign=middle;whiteSpace=wrap;rounded=0;fontSize=11;fontFamily=Helvetica;fontColor=default;" parent="1" vertex="1">
          <mxGeometry x="-524" y="-822.5" width="50" height="15" as="geometry" />
        </mxCell>
        <mxCell id="Rw5dygfvGm5HHu7KgE6S-87" value="&lt;font style=&quot;font-size: 10px;&quot;&gt;&lt;b&gt;飯岡&lt;/b&gt;&lt;/font&gt;" style="text;html=1;strokeColor=none;fillColor=none;align=center;verticalAlign=middle;whiteSpace=wrap;rounded=0;fontSize=11;fontFamily=Helvetica;fontColor=default;" parent="1" vertex="1">
          <mxGeometry x="-479" y="-855" width="50" height="15" as="geometry" />
        </mxCell>
        <mxCell id="Rw5dygfvGm5HHu7KgE6S-88" value="&lt;b&gt;&lt;font style=&quot;font-size: 10px;&quot;&gt;宇佐見&lt;/font&gt;&lt;/b&gt;" style="text;html=1;strokeColor=none;fillColor=none;align=center;verticalAlign=middle;whiteSpace=wrap;rounded=0;fontSize=11;fontFamily=Helvetica;fontColor=default;" parent="1" vertex="1">
          <mxGeometry x="-434" y="-862.5" width="50" height="15" as="geometry" />
        </mxCell>
        <mxCell id="Rw5dygfvGm5HHu7KgE6S-89" value="&lt;b&gt;&lt;font style=&quot;font-size: 10px;&quot;&gt;メリー湿原&lt;/font&gt;&lt;/b&gt;" style="text;html=1;strokeColor=none;fillColor=none;align=center;verticalAlign=middle;whiteSpace=wrap;rounded=0;fontSize=11;fontFamily=Helvetica;fontColor=default;" parent="1" vertex="1">
          <mxGeometry x="-438" y="-894" width="65" height="15" as="geometry" />
        </mxCell>
        <mxCell id="Rw5dygfvGm5HHu7KgE6S-90" value="&lt;font style=&quot;font-size: 10px;&quot;&gt;&lt;b&gt;冥界口&lt;/b&gt;&lt;/font&gt;" style="text;html=1;strokeColor=none;fillColor=none;align=center;verticalAlign=middle;whiteSpace=wrap;rounded=0;fontSize=11;fontFamily=Helvetica;fontColor=default;" parent="1" vertex="1">
          <mxGeometry x="-502" y="-899" width="50" height="15" as="geometry" />
        </mxCell>
        <mxCell id="Rw5dygfvGm5HHu7KgE6S-94" value="" style="ellipse;whiteSpace=wrap;html=1;aspect=fixed;" parent="1" vertex="1">
          <mxGeometry x="-474" y="-915" width="10" height="10" as="geometry" />
        </mxCell>
        <mxCell id="Ivb3BQ265d0Xipn8B_8D-16" value="" style="endArrow=none;html=1;rounded=1;curved=0;strokeWidth=3;strokeColor=#FFFFFF;dashed=1;dashPattern=8 8;" parent="1" target="Ivb3BQ265d0Xipn8B_8D-19" edge="1">
          <mxGeometry width="50" height="50" relative="1" as="geometry">
            <mxPoint x="-264" y="-235" as="sourcePoint" />
            <mxPoint x="-94" y="-360" as="targetPoint" />
            <Array as="points">
              <mxPoint x="-264" y="-335" />
              <mxPoint x="-84" y="-335" />
            </Array>
          </mxGeometry>
        </mxCell>
        <mxCell id="Rw5dygfvGm5HHu7KgE6S-96" value="&lt;b&gt;&lt;font style=&quot;font-size: 10px;&quot;&gt;浜川幽別&lt;/font&gt;&lt;/b&gt;" style="text;html=1;strokeColor=none;fillColor=none;align=center;verticalAlign=middle;whiteSpace=wrap;rounded=0;fontSize=11;fontFamily=Helvetica;fontColor=default;" parent="1" vertex="1">
          <mxGeometry x="-465" y="-924" width="50" height="15" as="geometry" />
        </mxCell>
        <mxCell id="Rw5dygfvGm5HHu7KgE6S-97" value="&lt;b&gt;&lt;font style=&quot;font-size: 10px;&quot;&gt;北幌&lt;/font&gt;&lt;/b&gt;" style="text;html=1;strokeColor=none;fillColor=none;align=center;verticalAlign=middle;whiteSpace=wrap;rounded=0;fontSize=11;fontFamily=Helvetica;fontColor=default;" parent="1" vertex="1">
          <mxGeometry x="-518" y="-939" width="50" height="15" as="geometry" />
        </mxCell>
        <mxCell id="Rw5dygfvGm5HHu7KgE6S-98" value="&lt;b&gt;&lt;font style=&quot;font-size: 10px;&quot;&gt;幽明西三条&lt;/font&gt;&lt;/b&gt;" style="text;html=1;strokeColor=none;fillColor=none;align=center;verticalAlign=middle;whiteSpace=wrap;rounded=0;fontSize=11;fontFamily=Helvetica;fontColor=default;" parent="1" vertex="1">
          <mxGeometry x="-485" y="-1005" width="64" height="15" as="geometry" />
        </mxCell>
        <mxCell id="Rw5dygfvGm5HHu7KgE6S-99" value="&lt;b&gt;&lt;font style=&quot;font-size: 10px;&quot;&gt;新幽明&lt;/font&gt;&lt;/b&gt;" style="text;html=1;strokeColor=none;fillColor=none;align=center;verticalAlign=middle;whiteSpace=wrap;rounded=0;fontSize=11;fontFamily=Helvetica;fontColor=default;" parent="1" vertex="1">
          <mxGeometry x="-550" y="-1024" width="64" height="15" as="geometry" />
        </mxCell>
        <mxCell id="Rw5dygfvGm5HHu7KgE6S-100" value="&lt;font style=&quot;font-size: 10px;&quot;&gt;&lt;b&gt;永江&lt;/b&gt;&lt;/font&gt;" style="text;html=1;strokeColor=none;fillColor=none;align=center;verticalAlign=middle;whiteSpace=wrap;rounded=0;fontSize=11;fontFamily=Helvetica;fontColor=default;" parent="1" vertex="1">
          <mxGeometry x="-506" y="-1055" width="64" height="15" as="geometry" />
        </mxCell>
        <mxCell id="Rw5dygfvGm5HHu7KgE6S-101" value="&lt;font style=&quot;font-size: 10px;&quot;&gt;&lt;b&gt;桜狩&lt;/b&gt;&lt;/font&gt;" style="text;html=1;strokeColor=none;fillColor=none;align=center;verticalAlign=middle;whiteSpace=wrap;rounded=0;fontSize=11;fontFamily=Helvetica;fontColor=default;" parent="1" vertex="1">
          <mxGeometry x="-466" y="-1030" width="64" height="15" as="geometry" />
        </mxCell>
        <mxCell id="Rw5dygfvGm5HHu7KgE6S-102" value="&lt;font style=&quot;font-size: 10px;&quot;&gt;&lt;b&gt;東メルラン&lt;/b&gt;&lt;/font&gt;" style="text;html=1;strokeColor=none;fillColor=none;align=center;verticalAlign=middle;whiteSpace=wrap;rounded=0;fontSize=11;fontFamily=Helvetica;fontColor=default;" parent="1" vertex="1">
          <mxGeometry x="-413" y="-1063" width="67" height="15" as="geometry" />
        </mxCell>
        <mxCell id="Rw5dygfvGm5HHu7KgE6S-103" value="&lt;font style=&quot;font-size: 10px;&quot;&gt;&lt;b&gt;メルラン&lt;/b&gt;&lt;/font&gt;" style="text;html=1;strokeColor=none;fillColor=none;align=center;verticalAlign=middle;whiteSpace=wrap;rounded=0;fontSize=11;fontFamily=Helvetica;fontColor=default;" parent="1" vertex="1">
          <mxGeometry x="-436" y="-1097" width="52" height="20" as="geometry" />
        </mxCell>
        <mxCell id="Rw5dygfvGm5HHu7KgE6S-104" value="&lt;b&gt;&lt;font style=&quot;font-size: 10px;&quot;&gt;幽明池田&lt;/font&gt;&lt;/b&gt;" style="text;html=1;strokeColor=none;fillColor=none;align=center;verticalAlign=middle;whiteSpace=wrap;rounded=0;fontSize=11;fontFamily=Helvetica;fontColor=default;" parent="1" vertex="1">
          <mxGeometry x="-497" y="-1097" width="67" height="20" as="geometry" />
        </mxCell>
        <mxCell id="Rw5dygfvGm5HHu7KgE6S-105" value="&lt;font style=&quot;font-size: 10px;&quot;&gt;&lt;b&gt;幽明白滝&lt;/b&gt;&lt;/font&gt;" style="text;html=1;strokeColor=none;fillColor=none;align=center;verticalAlign=middle;whiteSpace=wrap;rounded=0;fontSize=11;fontFamily=Helvetica;fontColor=default;" parent="1" vertex="1">
          <mxGeometry x="-549" y="-1070" width="60" height="15" as="geometry" />
        </mxCell>
        <mxCell id="Rw5dygfvGm5HHu7KgE6S-106" value="&lt;b&gt;&lt;font style=&quot;font-size: 10px;&quot;&gt;冥界上川&lt;/font&gt;&lt;/b&gt;" style="text;html=1;strokeColor=none;fillColor=none;align=center;verticalAlign=middle;whiteSpace=wrap;rounded=0;fontSize=11;fontFamily=Helvetica;fontColor=default;" parent="1" vertex="1">
          <mxGeometry x="-576" y="-1103" width="67" height="15" as="geometry" />
        </mxCell>
        <mxCell id="Rw5dygfvGm5HHu7KgE6S-107" value="&lt;font style=&quot;font-size: 10px;&quot;&gt;&lt;b&gt;&lt;font style=&quot;font-size: 10px;&quot;&gt;冥界&lt;/font&gt;中里&lt;/b&gt;&lt;/font&gt;" style="text;html=1;strokeColor=none;fillColor=none;align=center;verticalAlign=middle;whiteSpace=wrap;rounded=0;fontSize=11;fontFamily=Helvetica;fontColor=default;" parent="1" vertex="1">
          <mxGeometry x="-576" y="-1123" width="67" height="15" as="geometry" />
        </mxCell>
        <mxCell id="Rw5dygfvGm5HHu7KgE6S-108" value="&lt;font style=&quot;font-size: 10px;&quot;&gt;&lt;b&gt;北中里&lt;/b&gt;&lt;/font&gt;" style="text;html=1;strokeColor=none;fillColor=none;align=center;verticalAlign=middle;whiteSpace=wrap;rounded=0;fontSize=11;fontFamily=Helvetica;fontColor=default;" parent="1" vertex="1">
          <mxGeometry x="-571" y="-1143" width="67" height="15" as="geometry" />
        </mxCell>
        <mxCell id="Rw5dygfvGm5HHu7KgE6S-109" value="&lt;b&gt;&lt;font style=&quot;font-size: 10px;&quot;&gt;太田&lt;/font&gt;&lt;/b&gt;" style="text;html=1;strokeColor=none;fillColor=none;align=center;verticalAlign=middle;whiteSpace=wrap;rounded=0;fontSize=11;fontFamily=Helvetica;fontColor=default;" parent="1" vertex="1">
          <mxGeometry x="-565" y="-1163" width="67" height="15" as="geometry" />
        </mxCell>
        <mxCell id="Rw5dygfvGm5HHu7KgE6S-110" value="&lt;b&gt;&lt;font style=&quot;font-size: 10px;&quot;&gt;空川&lt;/font&gt;&lt;/b&gt;" style="text;html=1;strokeColor=none;fillColor=none;align=center;verticalAlign=middle;whiteSpace=wrap;rounded=0;fontSize=11;fontFamily=Helvetica;fontColor=default;" parent="1" vertex="1">
          <mxGeometry x="-543" y="-1194" width="67" height="15" as="geometry" />
        </mxCell>
        <mxCell id="Rw5dygfvGm5HHu7KgE6S-111" value="&lt;b&gt;&lt;font style=&quot;font-size: 10px;&quot;&gt;白玉階段&lt;/font&gt;&lt;/b&gt;" style="text;html=1;strokeColor=none;fillColor=none;align=center;verticalAlign=middle;whiteSpace=wrap;rounded=0;fontSize=11;fontFamily=Helvetica;fontColor=default;" parent="1" vertex="1">
          <mxGeometry x="-480" y="-1204" width="67" height="15" as="geometry" />
        </mxCell>
        <mxCell id="Rw5dygfvGm5HHu7KgE6S-112" value="&lt;b&gt;&lt;font style=&quot;font-size: 10px;&quot;&gt;西行妖&lt;/font&gt;&lt;/b&gt;" style="text;html=1;strokeColor=none;fillColor=none;align=center;verticalAlign=middle;whiteSpace=wrap;rounded=0;fontSize=11;fontFamily=Helvetica;fontColor=default;" parent="1" vertex="1">
          <mxGeometry x="-469" y="-1245" width="35" height="15" as="geometry" />
        </mxCell>
        <mxCell id="Rw5dygfvGm5HHu7KgE6S-113" value="&lt;font size=&quot;1&quot; color=&quot;#ffffff&quot;&gt;&lt;b style=&quot;font-size: 12px;&quot;&gt;妖怪山線&lt;/b&gt;&lt;/font&gt;" style="rounded=1;whiteSpace=wrap;html=1;fontFamily=Helvetica;fontSize=11;fontColor=default;strokeColor=none;fillColor=#00CC00;opacity=90;" parent="1" vertex="1">
          <mxGeometry x="-284" y="-530" width="59" height="20" as="geometry" />
        </mxCell>
        <mxCell id="xDn3wvnqnu_-Lds5UZNF-5" value="" style="ellipse;whiteSpace=wrap;html=1;aspect=fixed;" parent="1" vertex="1">
          <mxGeometry x="-179" y="-480" width="10" height="10" as="geometry" />
        </mxCell>
        <mxCell id="ixQYzUR_9ilT7Fjt8lEI-17" value="" style="endArrow=none;html=1;rounded=0;entryX=0.019;entryY=0.491;entryDx=0;entryDy=0;entryPerimeter=0;exitX=0.512;exitY=0.056;exitDx=0;exitDy=0;exitPerimeter=0;strokeWidth=5;curved=1;strokeColor=#FFB366;" parent="1" source="ixQYzUR_9ilT7Fjt8lEI-9" target="ixQYzUR_9ilT7Fjt8lEI-3" edge="1">
          <mxGeometry width="50" height="50" relative="1" as="geometry">
            <mxPoint x="-590" y="-422" as="sourcePoint" />
            <mxPoint x="-540" y="-472" as="targetPoint" />
            <Array as="points">
              <mxPoint x="-600" y="-462" />
              <mxPoint x="-600" y="-482" />
              <mxPoint x="-620" y="-482" />
              <mxPoint x="-620" y="-460" />
              <mxPoint x="-600" y="-460" />
            </Array>
          </mxGeometry>
        </mxCell>
        <mxCell id="tzKpOQWYOQej8DqPO7ZZ-6" value="" style="endArrow=none;html=1;rounded=1;strokeColor=#FF9933;curved=0;strokeWidth=6;entryX=0.383;entryY=-0.072;entryDx=0;entryDy=0;entryPerimeter=0;" parent="1" target="ixQYzUR_9ilT7Fjt8lEI-1" edge="1">
          <mxGeometry width="50" height="50" relative="1" as="geometry">
            <mxPoint x="-531" y="-460" as="sourcePoint" />
            <mxPoint x="-478.5" y="-400.5" as="targetPoint" />
            <Array as="points">
              <mxPoint x="-501" y="-460" />
              <mxPoint x="-481" y="-435" />
            </Array>
          </mxGeometry>
        </mxCell>
        <mxCell id="tzKpOQWYOQej8DqPO7ZZ-5" value="" style="endArrow=none;html=1;rounded=1;strokeColor=#ff0000;strokeWidth=6;curved=0;exitX=0.254;exitY=0.291;exitDx=0;exitDy=0;exitPerimeter=0;" parent="1" source="2lCTwFAhln7CDwlXWDaY-9" edge="1">
          <mxGeometry width="50" height="50" relative="1" as="geometry">
            <mxPoint x="-214" y="-50" as="sourcePoint" />
            <mxPoint x="-172" y="-60" as="targetPoint" />
            <Array as="points">
              <mxPoint x="-214" y="-60" />
            </Array>
          </mxGeometry>
        </mxCell>
        <mxCell id="2lCTwFAhln7CDwlXWDaY-18" value="" style="group" parent="1" connectable="0" vertex="1">
          <mxGeometry x="-264" y="-70" width="45" height="25" as="geometry" />
        </mxCell>
        <mxCell id="2lCTwFAhln7CDwlXWDaY-9" value="" style="ellipse;whiteSpace=wrap;html=1;aspect=fixed;" parent="2lCTwFAhln7CDwlXWDaY-18" vertex="1">
          <mxGeometry x="35" width="10" height="10" as="geometry" />
        </mxCell>
        <mxCell id="2lCTwFAhln7CDwlXWDaY-16" value="&lt;b style=&quot;font-size: 10px;&quot;&gt;竹林&lt;/b&gt;" style="text;html=1;strokeColor=none;fillColor=none;align=center;verticalAlign=middle;whiteSpace=wrap;rounded=0;fontSize=11;fontFamily=Helvetica;fontColor=default;" parent="2lCTwFAhln7CDwlXWDaY-18" vertex="1">
          <mxGeometry x="5" y="10" width="30" height="15" as="geometry" />
        </mxCell>
        <mxCell id="tzKpOQWYOQej8DqPO7ZZ-7" value="" style="ellipse;whiteSpace=wrap;html=1;aspect=fixed;" parent="1" vertex="1">
          <mxGeometry x="-153.99888888888893" y="-81" width="10" height="10" as="geometry" />
        </mxCell>
        <mxCell id="tzKpOQWYOQej8DqPO7ZZ-31" value="&lt;font size=&quot;1&quot; color=&quot;#ffffff&quot;&gt;&lt;b style=&quot;font-size: 12px;&quot;&gt;旧都本線（地面）&lt;/b&gt;&lt;/font&gt;" style="rounded=1;whiteSpace=wrap;html=1;fontFamily=Helvetica;fontSize=11;fontColor=default;strokeColor=none;fillColor=#FF9933;opacity=90;gradientColor=none;" parent="1" vertex="1">
          <mxGeometry x="-530" y="-496" width="104" height="20" as="geometry" />
        </mxCell>
        <mxCell id="vYkFGx1_SyEl9Rzi1dy4-1" value="" style="ellipse;whiteSpace=wrap;html=1;aspect=fixed;" parent="1" vertex="1">
          <mxGeometry x="-479" y="-1220" width="10" height="10" as="geometry" />
        </mxCell>
        <mxCell id="vYkFGx1_SyEl9Rzi1dy4-2" value="&lt;b&gt;&lt;font style=&quot;font-size: 10px;&quot;&gt;白玉楼&lt;/font&gt;&lt;/b&gt;" style="text;html=1;strokeColor=none;fillColor=none;align=center;verticalAlign=middle;whiteSpace=wrap;rounded=0;fontSize=11;fontFamily=Helvetica;fontColor=default;" parent="1" vertex="1">
          <mxGeometry x="-469" y="-1225" width="35" height="15" as="geometry" />
        </mxCell>
        <mxCell id="2lCTwFAhln7CDwlXWDaY-48" value="" style="ellipse;whiteSpace=wrap;html=1;aspect=fixed;" parent="1" vertex="1">
          <mxGeometry x="-479" y="-232" width="10" height="10" as="geometry" />
        </mxCell>
        <mxCell id="pH5Xy83wDYZSJfrejwgW-1" value="" style="ellipse;whiteSpace=wrap;html=1;aspect=fixed;" parent="1" vertex="1">
          <mxGeometry x="-373" y="-440" width="10" height="10" as="geometry" />
        </mxCell>
        <mxCell id="Ivb3BQ265d0Xipn8B_8D-1" value="" style="endArrow=none;html=1;rounded=0;strokeColor=#0000CC;strokeWidth=6;" parent="1" source="Ivb3BQ265d0Xipn8B_8D-3" edge="1">
          <mxGeometry width="50" height="50" relative="1" as="geometry">
            <mxPoint x="-93.23000000000002" y="-219" as="sourcePoint" />
            <mxPoint x="-85" y="-360" as="targetPoint" />
          </mxGeometry>
        </mxCell>
        <mxCell id="Ivb3BQ265d0Xipn8B_8D-17" value="" style="endArrow=none;html=1;rounded=0;strokeColor=#FFFFFF;strokeWidth=3;dashed=1;dashPattern=8 8;" parent="1" source="Ivb3BQ265d0Xipn8B_8D-3" edge="1">
          <mxGeometry width="50" height="50" relative="1" as="geometry">
            <mxPoint x="-93.23000000000002" y="-219" as="sourcePoint" />
            <mxPoint x="-85" y="-360" as="targetPoint" />
          </mxGeometry>
        </mxCell>
        <mxCell id="Ivb3BQ265d0Xipn8B_8D-3" value="" style="ellipse;whiteSpace=wrap;html=1;aspect=fixed;" parent="1" vertex="1">
          <mxGeometry x="-90.00000000000001" y="-220" width="10" height="10" as="geometry" />
        </mxCell>
        <mxCell id="Ivb3BQ265d0Xipn8B_8D-5" value="" style="rounded=1;whiteSpace=wrap;html=1;strokeColor=default;fillColor=#FFFFFF;arcSize=25;strokeWidth=2;" parent="1" vertex="1">
          <mxGeometry x="-249" y="-360" width="10" height="30" as="geometry" />
        </mxCell>
        <mxCell id="Ivb3BQ265d0Xipn8B_8D-6" value="" style="ellipse;whiteSpace=wrap;html=1;aspect=fixed;" parent="1" vertex="1">
          <mxGeometry x="-269" y="-240" width="10" height="10" as="geometry" />
        </mxCell>
        <mxCell id="Ivb3BQ265d0Xipn8B_8D-8" value="" style="ellipse;whiteSpace=wrap;html=1;aspect=fixed;" parent="1" vertex="1">
          <mxGeometry x="-279" y="-165" width="10" height="10" as="geometry" />
        </mxCell>
        <mxCell id="Ivb3BQ265d0Xipn8B_8D-10" value="" style="endArrow=none;html=1;rounded=1;labelBackgroundColor=default;strokeColor=#808080;strokeWidth=6;fontFamily=Helvetica;fontSize=11;fontColor=default;startSize=0;endSize=0;shape=connector;" parent="1" target="Ivb3BQ265d0Xipn8B_8D-9" edge="1">
          <mxGeometry width="50" height="50" relative="1" as="geometry">
            <mxPoint x="-264" y="-205" as="sourcePoint" />
            <mxPoint x="-209" y="-205" as="targetPoint" />
            <Array as="points" />
          </mxGeometry>
        </mxCell>
        <mxCell id="Ivb3BQ265d0Xipn8B_8D-9" value="" style="rounded=1;whiteSpace=wrap;html=1;strokeColor=default;fillColor=#FFFFFF;arcSize=20;rotation=90;strokeWidth=2;" parent="1" vertex="1">
          <mxGeometry x="-276.5" y="-215" width="10" height="20" as="geometry" />
        </mxCell>
        <mxCell id="2lCTwFAhln7CDwlXWDaY-28" value="&lt;font style=&quot;font-size: 10px;&quot;&gt;&lt;font style=&quot;font-size: 10px;&quot;&gt;&lt;b style=&quot;&quot;&gt;南&lt;/b&gt;&lt;/font&gt;&lt;b&gt;人間の里&lt;/b&gt;&lt;/font&gt;" style="text;html=1;strokeColor=none;fillColor=none;align=left;verticalAlign=middle;whiteSpace=wrap;rounded=0;fontSize=11;fontFamily=Helvetica;fontColor=default;" parent="1" vertex="1">
          <mxGeometry x="-334.0038461538461" y="-170" width="70" height="15" as="geometry" />
        </mxCell>
        <mxCell id="Ivb3BQ265d0Xipn8B_8D-11" value="&lt;font style=&quot;font-size: 10px;&quot;&gt;&lt;b&gt;人間の里&lt;/b&gt;&lt;/font&gt;" style="text;html=1;strokeColor=none;fillColor=none;align=center;verticalAlign=middle;whiteSpace=wrap;rounded=0;fontSize=11;fontFamily=Helvetica;fontColor=default;" parent="1" vertex="1">
          <mxGeometry x="-324" y="-200" width="45" height="15" as="geometry" />
        </mxCell>
        <mxCell id="Ivb3BQ265d0Xipn8B_8D-12" value="" style="rounded=1;whiteSpace=wrap;html=1;strokeColor=default;fillColor=#FFFFFF;arcSize=25;rotation=90;strokeWidth=2;" parent="1" vertex="1">
          <mxGeometry x="-127" y="-250" width="10" height="20" as="geometry" />
        </mxCell>
        <mxCell id="Ivb3BQ265d0Xipn8B_8D-13" value="&lt;span style=&quot;font-size: 10px;&quot;&gt;&lt;b&gt;博麗神社&lt;/b&gt;&lt;/span&gt;" style="text;html=1;strokeColor=none;fillColor=none;align=center;verticalAlign=middle;whiteSpace=wrap;rounded=0;fontSize=11;fontFamily=Helvetica;fontColor=default;" parent="1" vertex="1">
          <mxGeometry x="-179" y="-250" width="45" height="15" as="geometry" />
        </mxCell>
        <mxCell id="Ivb3BQ265d0Xipn8B_8D-32" value="" style="endArrow=none;html=1;rounded=1;entryX=-0.033;entryY=0.527;entryDx=0;entryDy=0;entryPerimeter=0;exitX=1.067;exitY=0.242;exitDx=0;exitDy=0;exitPerimeter=0;strokeWidth=6;curved=0;strokeColor=#0000cc;" parent="1" source="Ivb3BQ265d0Xipn8B_8D-28" target="Ivb3BQ265d0Xipn8B_8D-19" edge="1">
          <mxGeometry width="50" height="50" relative="1" as="geometry">
            <mxPoint x="-164" y="-705" as="sourcePoint" />
            <mxPoint x="-89" y="-409.61538461538464" as="targetPoint" />
            <Array as="points">
              <mxPoint x="-164" y="-655" />
              <mxPoint x="-194" y="-625" />
              <mxPoint x="-464" y="-625" />
              <mxPoint x="-464" y="-565" />
              <mxPoint x="-164" y="-565" />
              <mxPoint x="-85" y="-485" />
            </Array>
          </mxGeometry>
        </mxCell>
        <mxCell id="Ivb3BQ265d0Xipn8B_8D-14" value="" style="rounded=1;whiteSpace=wrap;html=1;strokeColor=default;fillColor=#FFFFFF;arcSize=26;strokeWidth=2;" parent="1" vertex="1">
          <mxGeometry x="-174" y="-355" width="10" height="25" as="geometry" />
        </mxCell>
        <mxCell id="Ivb3BQ265d0Xipn8B_8D-34" value="" style="endArrow=none;html=1;rounded=1;exitX=1.067;exitY=0.242;exitDx=0;exitDy=0;exitPerimeter=0;strokeWidth=3;curved=0;strokeColor=#FFFFFF;dashed=1;dashPattern=8 8;entryX=0.012;entryY=0.548;entryDx=0;entryDy=0;entryPerimeter=0;" parent="1" target="Ivb3BQ265d0Xipn8B_8D-19" edge="1">
          <mxGeometry width="50" height="50" relative="1" as="geometry">
            <mxPoint x="-164" y="-709" as="sourcePoint" />
            <mxPoint x="-94" y="-379" as="targetPoint" />
            <Array as="points">
              <mxPoint x="-164" y="-655" />
              <mxPoint x="-194" y="-625" />
              <mxPoint x="-464" y="-625" />
              <mxPoint x="-464" y="-565" />
              <mxPoint x="-164" y="-565" />
              <mxPoint x="-85" y="-485" />
            </Array>
          </mxGeometry>
        </mxCell>
        <mxCell id="Ivb3BQ265d0Xipn8B_8D-18" value="" style="ellipse;whiteSpace=wrap;html=1;aspect=fixed;" parent="1" vertex="1">
          <mxGeometry x="-269" y="-290" width="10" height="10" as="geometry" />
        </mxCell>
        <mxCell id="Ivb3BQ265d0Xipn8B_8D-19" value="" style="rounded=1;whiteSpace=wrap;html=1;strokeColor=default;fillColor=#FFFFFF;arcSize=25;rotation=90;strokeWidth=2;" parent="1" vertex="1">
          <mxGeometry x="-90" y="-370" width="12" height="12" as="geometry" />
        </mxCell>
        <mxCell id="Ivb3BQ265d0Xipn8B_8D-20" value="&lt;span style=&quot;font-size: 10px;&quot;&gt;&lt;b&gt;紅魔館&lt;/b&gt;&lt;/span&gt;" style="text;html=1;strokeColor=none;fillColor=none;align=center;verticalAlign=middle;whiteSpace=wrap;rounded=0;fontSize=11;fontFamily=Helvetica;fontColor=default;" parent="1" vertex="1">
          <mxGeometry x="-189" y="-375" width="40" height="15" as="geometry" />
        </mxCell>
        <mxCell id="Ivb3BQ265d0Xipn8B_8D-21" value="&lt;span style=&quot;font-size: 10px;&quot;&gt;&lt;b&gt;新紅魔&lt;/b&gt;&lt;/span&gt;" style="text;html=1;strokeColor=none;fillColor=none;align=center;verticalAlign=middle;whiteSpace=wrap;rounded=0;fontSize=11;fontFamily=Helvetica;fontColor=default;" parent="1" vertex="1">
          <mxGeometry x="-75.00000000000001" y="-370" width="40" height="15" as="geometry" />
        </mxCell>
        <mxCell id="Ivb3BQ265d0Xipn8B_8D-22" value="&lt;b style=&quot;font-size: 10px;&quot;&gt;永遠亭&lt;/b&gt;" style="text;html=1;strokeColor=none;fillColor=none;align=center;verticalAlign=middle;whiteSpace=wrap;rounded=0;fontSize=11;fontFamily=Helvetica;fontColor=default;" parent="1" vertex="1">
          <mxGeometry x="-142" y="-85" width="34" height="15" as="geometry" />
        </mxCell>
        <mxCell id="Ivb3BQ265d0Xipn8B_8D-23" value="" style="ellipse;whiteSpace=wrap;html=1;aspect=fixed;strokeWidth=2;" parent="1" vertex="1">
          <mxGeometry x="-219" y="-515" width="10" height="10" as="geometry" />
        </mxCell>
        <mxCell id="Ivb3BQ265d0Xipn8B_8D-24" value="&lt;b&gt;&lt;font style=&quot;font-size: 10px;&quot;&gt;無縁塚&lt;/font&gt;&lt;/b&gt;" style="text;html=1;strokeColor=none;fillColor=none;align=center;verticalAlign=middle;whiteSpace=wrap;rounded=0;fontSize=11;fontFamily=Helvetica;fontColor=default;" parent="1" vertex="1">
          <mxGeometry x="-204" y="-520" width="35" height="15" as="geometry" />
        </mxCell>
        <mxCell id="Ivb3BQ265d0Xipn8B_8D-25" value="&lt;font style=&quot;font-size: 10px;&quot;&gt;&lt;b&gt;人里中央&lt;/b&gt;&lt;/font&gt;" style="text;html=1;strokeColor=none;fillColor=none;align=center;verticalAlign=middle;whiteSpace=wrap;rounded=0;fontSize=11;fontFamily=Helvetica;fontColor=default;" parent="1" vertex="1">
          <mxGeometry x="-259" y="-245" width="45" height="15" as="geometry" />
        </mxCell>
        <mxCell id="Ivb3BQ265d0Xipn8B_8D-26" value="&lt;font style=&quot;font-size: 10px;&quot;&gt;&lt;b&gt;稗田&lt;/b&gt;&lt;/font&gt;" style="text;html=1;strokeColor=none;fillColor=none;align=center;verticalAlign=middle;whiteSpace=wrap;rounded=0;fontSize=11;fontFamily=Helvetica;fontColor=default;" parent="1" vertex="1">
          <mxGeometry x="-294" y="-290" width="25" height="15" as="geometry" />
        </mxCell>
        <mxCell id="Ivb3BQ265d0Xipn8B_8D-27" value="&lt;font style=&quot;font-size: 10px;&quot;&gt;&lt;b&gt;博麗神社東&lt;/b&gt;&lt;/font&gt;" style="text;html=1;strokeColor=none;fillColor=none;align=center;verticalAlign=middle;whiteSpace=wrap;rounded=0;fontSize=11;fontFamily=Helvetica;fontColor=default;" parent="1" vertex="1">
          <mxGeometry x="-80.00000000000001" y="-225" width="55" height="15" as="geometry" />
        </mxCell>
        <mxCell id="Ivb3BQ265d0Xipn8B_8D-28" value="" style="rounded=1;whiteSpace=wrap;html=1;strokeColor=default;fillColor=#FFFFFF;arcSize=25;rotation=90;strokeWidth=2;" parent="1" vertex="1">
          <mxGeometry x="-174" y="-725" width="10" height="20" as="geometry" />
        </mxCell>
        <mxCell id="Ivb3BQ265d0Xipn8B_8D-29" value="" style="rounded=1;whiteSpace=wrap;html=1;strokeColor=default;fillColor=#FFFFFF;arcSize=25;rotation=90;strokeWidth=2;" parent="1" vertex="1">
          <mxGeometry x="-474" y="-590" width="10" height="20" as="geometry" />
        </mxCell>
        <mxCell id="Ivb3BQ265d0Xipn8B_8D-30" value="" style="rounded=1;whiteSpace=wrap;html=1;strokeColor=default;fillColor=#FFFFFF;arcSize=26;strokeWidth=2;" parent="1" vertex="1">
          <mxGeometry x="-339" y="-640" width="10" height="20" as="geometry" />
        </mxCell>
        <mxCell id="Ivb3BQ265d0Xipn8B_8D-31" value="" style="rounded=1;whiteSpace=wrap;html=1;strokeColor=default;fillColor=#FFFFFF;arcSize=26;strokeWidth=2;" parent="1" vertex="1">
          <mxGeometry x="-299" y="-570" width="10" height="20" as="geometry" />
        </mxCell>
        <mxCell id="Ivb3BQ265d0Xipn8B_8D-33" value="&lt;b&gt;&lt;font style=&quot;font-size: 10px;&quot;&gt;八雲邸&lt;/font&gt;&lt;/b&gt;" style="text;html=1;strokeColor=none;fillColor=none;align=center;verticalAlign=middle;whiteSpace=wrap;rounded=0;fontSize=11;fontFamily=Helvetica;fontColor=default;" parent="1" vertex="1">
          <mxGeometry x="-154" y="-725" width="35" height="15" as="geometry" />
        </mxCell>
        <mxCell id="2lCTwFAhln7CDwlXWDaY-4" value="&lt;font style=&quot;font-size: 10px;&quot;&gt;&lt;b style=&quot;&quot;&gt;南&lt;/b&gt;&lt;b&gt;博麗&lt;/b&gt;&lt;/font&gt;" style="text;html=1;strokeColor=none;fillColor=none;align=center;verticalAlign=middle;whiteSpace=wrap;rounded=0;fontSize=11;fontFamily=Helvetica;fontColor=default;" parent="1" vertex="1">
          <mxGeometry x="-134" y="-155" width="48.61111111111111" height="15" as="geometry" />
        </mxCell>
        <mxCell id="Ivb3BQ265d0Xipn8B_8D-35" value="&lt;font size=&quot;1&quot; color=&quot;#ffffff&quot;&gt;&lt;b style=&quot;font-size: 12px;&quot;&gt;幽明結界線&lt;/b&gt;&lt;/font&gt;" style="rounded=1;whiteSpace=wrap;html=1;fontFamily=Helvetica;fontSize=11;fontColor=default;strokeColor=none;fillColor=#9933FF;opacity=90;" parent="1" vertex="1">
          <mxGeometry x="-254" y="-745" width="70" height="20" as="geometry" />
        </mxCell>
        <mxCell id="Ivb3BQ265d0Xipn8B_8D-36" value="&lt;font size=&quot;1&quot; color=&quot;#ffffff&quot;&gt;&lt;b style=&quot;font-size: 12px;&quot;&gt;冥界線&lt;/b&gt;&lt;/font&gt;" style="rounded=1;whiteSpace=wrap;html=1;fontFamily=Helvetica;fontSize=11;fontColor=default;strokeColor=none;fillColor=#FF99FF;opacity=90;" parent="1" vertex="1">
          <mxGeometry x="-539" y="-980" width="45" height="20" as="geometry" />
        </mxCell>
        <mxCell id="Ivb3BQ265d0Xipn8B_8D-37" value="" style="ellipse;whiteSpace=wrap;html=1;aspect=fixed;strokeWidth=2;" parent="1" vertex="1">
          <mxGeometry x="-479" y="-960" width="10" height="10" as="geometry" />
        </mxCell>
        <mxCell id="Ivb3BQ265d0Xipn8B_8D-38" value="&lt;b&gt;&lt;font style=&quot;font-size: 10px;&quot;&gt;幽明&lt;/font&gt;&lt;/b&gt;" style="text;html=1;strokeColor=none;fillColor=none;align=center;verticalAlign=middle;whiteSpace=wrap;rounded=0;fontSize=11;fontFamily=Helvetica;fontColor=default;" parent="1" vertex="1">
          <mxGeometry x="-474" y="-965" width="40" height="15" as="geometry" />
        </mxCell>
        <mxCell id="Ivb3BQ265d0Xipn8B_8D-39" value="&lt;font size=&quot;1&quot; color=&quot;#ffffff&quot;&gt;&lt;b style=&quot;font-size: 12px;&quot;&gt;霧の湖・妖怪山高速線&lt;/b&gt;&lt;/font&gt;" style="rounded=1;whiteSpace=wrap;html=1;fontFamily=Helvetica;fontSize=11;fontColor=default;strokeColor=none;fillColor=#0000cc;opacity=90;" parent="1" vertex="1">
          <mxGeometry x="-154" y="-705" width="129" height="20" as="geometry" />
        </mxCell>
        <mxCell id="Ivb3BQ265d0Xipn8B_8D-40" value="&lt;font size=&quot;1&quot; color=&quot;#ffffff&quot;&gt;&lt;b style=&quot;font-size: 12px;&quot;&gt;博麗東線&lt;/b&gt;&lt;/font&gt;" style="rounded=1;whiteSpace=wrap;html=1;fontFamily=Helvetica;fontSize=11;fontColor=default;strokeColor=none;fillColor=#0000cc;opacity=90;" parent="1" vertex="1">
          <mxGeometry x="-108" y="-204" width="60" height="20" as="geometry" />
        </mxCell>
        <mxCell id="Ivb3BQ265d0Xipn8B_8D-41" value="&lt;font size=&quot;1&quot; color=&quot;#ffffff&quot;&gt;&lt;b style=&quot;font-size: 12px;&quot;&gt;霧の湖線&lt;/b&gt;&lt;/font&gt;" style="rounded=1;whiteSpace=wrap;html=1;fontFamily=Helvetica;fontSize=11;fontColor=default;strokeColor=none;fillColor=#0000cc;opacity=90;" parent="1" vertex="1">
          <mxGeometry x="-254" y="-320" width="60" height="20" as="geometry" />
        </mxCell>
        <mxCell id="Ivb3BQ265d0Xipn8B_8D-42" value="&lt;b style=&quot;border-color: var(--border-color); color: rgb(255, 255, 255); font-size: 12px;&quot;&gt;霧の湖・妖怪山高速線&lt;/b&gt;" style="rounded=1;whiteSpace=wrap;html=1;fontFamily=Helvetica;fontSize=11;fontColor=default;strokeColor=none;fillColor=#0000cc;opacity=90;" parent="1" vertex="1">
          <mxGeometry x="-276" y="-600" width="126" height="20" as="geometry" />
        </mxCell>
        <mxCell id="ixQYzUR_9ilT7Fjt8lEI-1" value="" style="rounded=1;whiteSpace=wrap;html=1;strokeColor=default;fillColor=#FFFFFF;arcSize=24;strokeWidth=2;" parent="1" vertex="1">
          <mxGeometry x="-489" y="-400" width="20" height="10" as="geometry" />
        </mxCell>
        <mxCell id="2lCTwFAhln7CDwlXWDaY-74" value="&lt;span style=&quot;font-size: 10px;&quot;&gt;&lt;b&gt;風神の湖&lt;/b&gt;&lt;/span&gt;" style="text;html=1;strokeColor=none;fillColor=none;align=center;verticalAlign=middle;whiteSpace=wrap;rounded=0;fontSize=11;fontFamily=Helvetica;fontColor=default;" parent="1" vertex="1">
          <mxGeometry x="-453" y="-424" width="50" height="15" as="geometry" />
        </mxCell>
        <mxCell id="ixQYzUR_9ilT7Fjt8lEI-2" value="" style="ellipse;whiteSpace=wrap;html=1;aspect=fixed;" parent="1" vertex="1">
          <mxGeometry x="-496" y="-452" width="10" height="10" as="geometry" />
        </mxCell>
        <mxCell id="ixQYzUR_9ilT7Fjt8lEI-3" value="" style="ellipse;whiteSpace=wrap;html=1;aspect=fixed;" parent="1" vertex="1">
          <mxGeometry x="-537" y="-465" width="10" height="10" as="geometry" />
        </mxCell>
        <mxCell id="ixQYzUR_9ilT7Fjt8lEI-4" value="" style="group" parent="1" connectable="0" vertex="1">
          <mxGeometry x="-487" y="-462" width="52" height="15" as="geometry" />
        </mxCell>
        <mxCell id="ixQYzUR_9ilT7Fjt8lEI-5" value="&lt;span style=&quot;font-size: 10px;&quot;&gt;&lt;b&gt;湖浜八坂&lt;/b&gt;&lt;/span&gt;" style="text;html=1;strokeColor=none;fillColor=none;align=center;verticalAlign=middle;whiteSpace=wrap;rounded=0;fontSize=11;fontFamily=Helvetica;fontColor=default;" parent="ixQYzUR_9ilT7Fjt8lEI-4" vertex="1">
          <mxGeometry x="2.833212121212121" width="43.333333333333336" height="15" as="geometry" />
        </mxCell>
        <mxCell id="ixQYzUR_9ilT7Fjt8lEI-6" value="" style="group" parent="1" connectable="0" vertex="1">
          <mxGeometry x="-558" y="-455" width="55" height="15" as="geometry" />
        </mxCell>
        <mxCell id="ixQYzUR_9ilT7Fjt8lEI-7" value="&lt;b&gt;&lt;font style=&quot;font-size: 10px;&quot;&gt;幻想風穴&lt;/font&gt;&lt;/b&gt;" style="text;html=1;strokeColor=none;fillColor=none;align=center;verticalAlign=middle;whiteSpace=wrap;rounded=0;fontSize=11;fontFamily=Helvetica;fontColor=default;" parent="ixQYzUR_9ilT7Fjt8lEI-6" vertex="1">
          <mxGeometry x="2.996666666666666" width="45.833333333333336" height="15" as="geometry" />
        </mxCell>
        <mxCell id="ixQYzUR_9ilT7Fjt8lEI-8" value="" style="endArrow=none;html=1;rounded=0;strokeWidth=6;strokeColor=#ff9933;" parent="1" edge="1">
          <mxGeometry width="50" height="50" relative="1" as="geometry">
            <mxPoint x="-600" y="-142" as="sourcePoint" />
            <mxPoint x="-600" y="-422" as="targetPoint" />
          </mxGeometry>
        </mxCell>
        <mxCell id="ixQYzUR_9ilT7Fjt8lEI-9" value="" style="ellipse;whiteSpace=wrap;html=1;aspect=fixed;" parent="1" vertex="1">
          <mxGeometry x="-605" y="-427" width="10" height="10" as="geometry" />
        </mxCell>
        <mxCell id="ixQYzUR_9ilT7Fjt8lEI-10" value="" style="ellipse;whiteSpace=wrap;html=1;aspect=fixed;" parent="1" vertex="1">
          <mxGeometry x="-605" y="-387" width="10" height="10" as="geometry" />
        </mxCell>
        <mxCell id="ixQYzUR_9ilT7Fjt8lEI-11" value="" style="ellipse;whiteSpace=wrap;html=1;aspect=fixed;" parent="1" vertex="1">
          <mxGeometry x="-605" y="-347" width="10" height="10" as="geometry" />
        </mxCell>
        <mxCell id="ixQYzUR_9ilT7Fjt8lEI-12" value="" style="ellipse;whiteSpace=wrap;html=1;aspect=fixed;" parent="1" vertex="1">
          <mxGeometry x="-605" y="-307" width="10" height="10" as="geometry" />
        </mxCell>
        <mxCell id="ixQYzUR_9ilT7Fjt8lEI-13" value="" style="ellipse;whiteSpace=wrap;html=1;aspect=fixed;" parent="1" vertex="1">
          <mxGeometry x="-605" y="-267" width="10" height="10" as="geometry" />
        </mxCell>
        <mxCell id="ixQYzUR_9ilT7Fjt8lEI-14" value="" style="ellipse;whiteSpace=wrap;html=1;aspect=fixed;" parent="1" vertex="1">
          <mxGeometry x="-605" y="-227" width="10" height="10" as="geometry" />
        </mxCell>
        <mxCell id="ixQYzUR_9ilT7Fjt8lEI-15" value="" style="ellipse;whiteSpace=wrap;html=1;aspect=fixed;" parent="1" vertex="1">
          <mxGeometry x="-605" y="-187" width="10" height="10" as="geometry" />
        </mxCell>
        <mxCell id="ixQYzUR_9ilT7Fjt8lEI-16" value="" style="ellipse;whiteSpace=wrap;html=1;aspect=fixed;" parent="1" vertex="1">
          <mxGeometry x="-605" y="-147" width="10" height="10" as="geometry" />
        </mxCell>
        <mxCell id="ixQYzUR_9ilT7Fjt8lEI-19" value="&lt;font size=&quot;1&quot; color=&quot;#ffffff&quot;&gt;&lt;b style=&quot;font-size: 12px;&quot;&gt;旧都本線&lt;/b&gt;&lt;/font&gt;" style="rounded=1;whiteSpace=wrap;html=1;fontFamily=Helvetica;fontSize=11;fontColor=default;strokeColor=none;fillColor=#FF9933;opacity=90;gradientColor=none;" parent="1" vertex="1">
          <mxGeometry x="-645" y="-130" width="55" height="20" as="geometry" />
        </mxCell>
        <mxCell id="ixQYzUR_9ilT7Fjt8lEI-21" value="&lt;span style=&quot;font-size: 10px;&quot;&gt;&lt;b&gt;水橋&lt;/b&gt;&lt;/span&gt;" style="text;html=1;strokeColor=none;fillColor=none;align=center;verticalAlign=middle;whiteSpace=wrap;rounded=0;fontSize=11;fontFamily=Helvetica;fontColor=default;" parent="1" vertex="1">
          <mxGeometry x="-635" y="-432" width="26.17" height="15" as="geometry" />
        </mxCell>
        <mxCell id="ixQYzUR_9ilT7Fjt8lEI-23" value="&lt;span style=&quot;font-size: 10px;&quot;&gt;&lt;b&gt;地霊殿&lt;/b&gt;&lt;/span&gt;" style="text;html=1;strokeColor=none;fillColor=none;align=center;verticalAlign=middle;whiteSpace=wrap;rounded=0;fontSize=11;fontFamily=Helvetica;fontColor=default;" parent="1" vertex="1">
          <mxGeometry x="-645" y="-152" width="36.17" height="15" as="geometry" />
        </mxCell>
        <mxCell id="ixQYzUR_9ilT7Fjt8lEI-24" value="&lt;span style=&quot;font-size: 10px;&quot;&gt;&lt;b&gt;旧都&lt;/b&gt;&lt;/span&gt;" style="text;html=1;strokeColor=none;fillColor=none;align=center;verticalAlign=middle;whiteSpace=wrap;rounded=0;fontSize=11;fontFamily=Helvetica;fontColor=default;" parent="1" vertex="1">
          <mxGeometry x="-635" y="-272" width="26.17" height="15" as="geometry" />
        </mxCell>
        <mxCell id="ixQYzUR_9ilT7Fjt8lEI-25" value="&lt;span style=&quot;font-size: 10px;&quot;&gt;&lt;b&gt;下旧都&lt;/b&gt;&lt;/span&gt;" style="text;html=1;strokeColor=none;fillColor=none;align=center;verticalAlign=middle;whiteSpace=wrap;rounded=0;fontSize=11;fontFamily=Helvetica;fontColor=default;" parent="1" vertex="1">
          <mxGeometry x="-645" y="-232" width="36.17" height="15" as="geometry" />
        </mxCell>
        <mxCell id="ixQYzUR_9ilT7Fjt8lEI-26" value="&lt;span style=&quot;font-size: 10px;&quot;&gt;&lt;b&gt;上古明地&lt;/b&gt;&lt;/span&gt;" style="text;html=1;strokeColor=none;fillColor=none;align=center;verticalAlign=middle;whiteSpace=wrap;rounded=0;fontSize=11;fontFamily=Helvetica;fontColor=default;" parent="1" vertex="1">
          <mxGeometry x="-655" y="-192" width="46.17" height="15" as="geometry" />
        </mxCell>
        <mxCell id="ixQYzUR_9ilT7Fjt8lEI-27" value="&lt;span style=&quot;font-size: 10px;&quot;&gt;&lt;b&gt;東旧都&lt;/b&gt;&lt;/span&gt;" style="text;html=1;strokeColor=none;fillColor=none;align=center;verticalAlign=middle;whiteSpace=wrap;rounded=0;fontSize=11;fontFamily=Helvetica;fontColor=default;" parent="1" vertex="1">
          <mxGeometry x="-645" y="-312" width="35" height="15" as="geometry" />
        </mxCell>
        <mxCell id="ixQYzUR_9ilT7Fjt8lEI-28" value="&lt;span style=&quot;font-size: 10px;&quot;&gt;&lt;b&gt;サトリ&lt;/b&gt;&lt;/span&gt;" style="text;html=1;strokeColor=none;fillColor=none;align=center;verticalAlign=middle;whiteSpace=wrap;rounded=0;fontSize=11;fontFamily=Helvetica;fontColor=default;" parent="1" vertex="1">
          <mxGeometry x="-645" y="-392" width="36.17" height="15" as="geometry" />
        </mxCell>
        <mxCell id="ixQYzUR_9ilT7Fjt8lEI-29" value="&lt;span style=&quot;font-size: 10px;&quot;&gt;&lt;b&gt;星熊温泉&lt;/b&gt;&lt;/span&gt;" style="text;html=1;strokeColor=none;fillColor=none;align=center;verticalAlign=middle;whiteSpace=wrap;rounded=0;fontSize=11;fontFamily=Helvetica;fontColor=default;" parent="1" vertex="1">
          <mxGeometry x="-655" y="-352" width="46.17" height="15" as="geometry" />
        </mxCell>
      </root>
    </mxGraphModel>
  </diagram>
</mxfile>
